<?xml version="1.0" encoding="UTF-8"?>
<svg width="1200px" height="1080px" viewBox="0 0 1200 1080" version="1.1" xmlns="http://www.w3.org/2000/svg" xmlns:xlink="http://www.w3.org/1999/xlink">
    <title>齐河svg</title>
    <g id="齐河svg" stroke="none" stroke-width="1" fill="none" fill-rule="evenodd">
        <g id="编组" transform="translate(123.104100, 363.589029)">
            <path d="M565.5455,267.285971 C559.0935,272.803971 552.6515,278.531971 543.3235,278.506971 C532.0765,278.476971 523.0015,282.336971 516.2435,291.619971 C512.5835,296.645971 507.4785,299.306971 500.9915,299.865971 C481.8025,301.518971 462.6695,303.867971 443.4655,305.264971 C438.0245,305.660971 432.4325,303.591971 426.8785,302.904971 C421.3235,302.218971 415.7305,301.847971 410.3605,301.357971 C411.8455,296.898971 411.2455,296.108971 405.4525,294.566971 C403.8025,294.126971 402.5305,292.404971 400.9575,291.487971 C400.0645,290.966971 398.8845,290.562971 397.8845,290.656971 C386.7395,291.697971 375.2295,290.515971 364.7875,296.032971 C363.9465,296.476971 362.5575,296.147971 361.4995,295.878971 C355.8265,294.435971 350.0335,293.292971 344.5625,291.282971 C338.9865,289.233971 333.3385,286.782971 331.8765,279.872971 C330.8435,274.987971 326.7775,276.563971 324.2105,277.214971 C321.3995,277.929971 319.4325,277.459971 316.9445,276.368971 C310.6115,273.590971 304.0835,271.258971 296.7985,268.422971 C296.2395,265.020971 299.7875,258.753971 291.6565,257.607971 C296.2345,253.628971 301.1115,251.972971 304.2745,246.992971 C307.6595,241.662971 307.5455,236.731971 307.0315,232.069971 C310.5025,229.059971 313.1195,225.510971 316.6035,224.102971 C320.6625,222.463971 325.4735,222.615971 329.9785,222.236263 C330.4585,222.196971 331.5955,223.861971 331.5085,224.632971 C331.3875,225.716971 330.4055,226.704971 329.6735,227.931971 C332.7765,230.224971 336.2395,232.285971 334.4125,238.283971 C333.3575,241.747971 336.2615,245.697971 340.5965,247.448971 C344.9645,249.213971 347.8845,246.384971 350.2585,244.121971 C354.0725,240.483971 357.5375,239.169971 362.8995,240.555971 C368.2895,241.948971 373.9425,243.355971 379.6655,239.858971 C382.5935,238.069971 386.8315,237.489971 390.3495,237.803971 C396.3005,238.333971 402.0675,236.014971 408.1805,237.835971 C412.9015,239.241971 418.1915,238.699971 423.2165,239.152971 C424.9915,239.312971 427.1205,239.344971 428.4095,240.325971 C431.2235,242.465971 433.6795,244.503971 437.0705,241.458971 C437.3185,241.235971 438.1375,241.358971 438.5055,241.601971 C444.4235,245.496971 449.8345,240.664971 455.4875,240.699971 C461.7465,240.737971 468.0005,241.370971 474.2585,241.721971 C478.5455,241.962971 479.7565,244.955971 481.9955,248.148971 C484.4405,251.636971 489.9485,252.983971 494.1215,255.263971 C500.4325,249.645971 506.4855,256.077971 512.3955,255.510971 C517.3085,255.037971 523.1295,252.939971 525.8295,247.447971 C527.3395,244.376971 529.7545,243.739971 532.8005,244.014971 C534.2895,244.149971 535.7985,244.235971 537.2875,244.149971 C544.5125,243.733971 549.0495,248.842971 547.6375,255.872971 C546.2405,262.826971 551.1665,267.810971 558.2615,266.651971 C560.4985,266.286971 562.7505,266.012971 564.9965,265.696971 C565.1795,266.226971 565.3625,266.755971 565.5455,267.285971" id="焦庙镇" fill-opacity="0" fill="#5BC3FC"></path>
            <path d="M518.6886,238.648171 C519.3626,244.419171 513.1366,249.535171 508.3436,248.370171 C505.6636,247.718171 502.8696,247.460171 500.1096,247.233171 C497.2956,247.003171 490.4066,241.010171 489.9066,238.146171 C489.3646,235.038171 482.3956,232.177171 478.3796,232.769171 C475.0756,233.256171 471.6296,232.778171 467.7906,232.721171 C472.7446,228.065171 476.7736,224.277171 481.5786,219.761171 C479.3496,218.639171 478.0256,217.917171 476.6566,217.294171 C472.7926,215.535171 468.9426,213.733171 465.0146,212.126171 C463.6866,211.583171 461.5076,210.830171 460.7936,211.436171 C455.5406,215.899171 451.2656,211.060171 446.5646,210.762171 L445.9776,208.991171 C450.9326,206.766171 455.9416,204.652171 460.8116,202.254171 C462.4946,201.425171 463.7786,199.819171 465.3336,198.691171 C467.8846,196.841171 470.4426,194.985171 473.1266,193.341171 C474.6936,192.382171 477.2806,192.306171 478.0806,191.013171 C481.5566,185.395171 487.0846,186.197171 492.3626,185.127171 C495.8056,184.429171 499.2616,181.532171 501.7316,178.751171 C507.3966,172.373171 515.2436,170.458171 523.3836,173.336171 C526.0976,174.296171 529.5976,173.039171 533.0976,172.768171 C536.1466,182.181171 544.5626,185.988171 553.4396,189.221171 C553.7396,189.331171 554.1026,189.314171 554.4316,189.288171 C559.5046,188.896171 564.7606,189.191171 569.6046,187.919171 C575.8686,186.274171 581.6946,183.014171 587.9206,181.155171 C591.6526,180.040171 595.7866,180.038171 598.6436,183.955171 C602.4656,189.197171 612.8676,190.905171 619.1176,188.789171 C625.1916,186.732171 630.9456,181.336171 638.2156,185.391171 C641.1156,187.008171 643.9386,189.186171 647.0686,189.870171 C652.0956,190.968171 657.4306,190.627171 662.4826,191.650171 C668.0376,192.775171 673.4196,194.755171 679.5686,196.566171 C678.1806,198.042171 677.1576,199.255171 676.0076,200.331171 C670.5896,205.400171 671.1856,209.741171 678.1476,212.902171 C682.5806,214.914171 687.3336,216.211171 691.8906,217.965171 C693.4056,218.549171 694.7576,219.556171 695.7896,220.145171 C695.5916,224.280171 695.4166,227.916171 695.2776,230.820171 C671.7266,234.218171 648.6526,237.256171 625.7006,241.036171 C618.7866,242.174171 611.2236,243.259171 607.3556,251.240171 C606.7086,252.578171 601.0686,252.662171 598.3736,251.643171 C588.0296,247.734171 580.5386,248.596171 573.6786,256.623171 C570.9556,259.807171 568.5536,260.744171 564.7426,260.038171 C562.1766,259.563171 559.4966,259.703171 555.8646,259.516171 C556.5496,256.592171 556.4776,253.688171 557.8356,251.820171 C560.1286,248.666171 559.4906,246.146171 556.6646,244.814171 C550.2146,241.775171 543.6596,238.298171 536.7746,237.047171 C531.1566,236.026171 524.9976,237.975171 518.6886,238.648171" id="祝阿镇" fill-opacity="0" fill="#5BC3FC"></path>
            <path d="M150.7933,287.595071 C152.0003,282.142071 149.6543,280.413071 145.2753,279.527071 C142.2983,278.925071 137.7183,280.193071 136.9893,274.847071 C136.9213,274.349071 134.0033,273.956071 132.4233,274.006071 C129.4753,274.100071 126.5393,274.555071 122.4863,274.975071 C123.5673,269.310071 124.5033,264.409071 125.5463,258.947071 C121.6513,256.797071 116.5363,253.970071 111.4163,251.149071 C110.7163,250.764071 109.3743,250.401071 109.3803,250.046071 C109.4993,243.144071 103.4423,244.013071 99.5753,242.274071 C97.5113,241.346071 95.2063,240.951071 93.1363,240.352071 C95.2583,228.594071 103.2833,224.034071 113.3553,220.706071 C117.9743,219.180071 121.9343,215.061071 125.6413,211.539071 C130.1943,207.213071 134.3683,202.442071 138.3173,197.550071 C140.6253,194.690071 142.0003,191.100071 144.1123,188.057071 C146.0723,185.233071 148.3603,182.617071 150.6773,180.067071 C152.4603,178.105071 154.4023,176.247071 156.4933,174.625071 C157.4953,173.848071 159.2423,173.055071 160.2493,173.410071 C168.7633,176.413071 177.0933,179.952071 185.6533,182.809071 C201.9793,188.258071 216.9123,196.520071 231.1763,205.827071 C250.2133,218.249071 270.7443,224.577071 293.4273,223.853071 C297.3563,223.728071 301.2643,222.938071 305.7243,223.179071 C303.6323,224.511071 301.6163,225.984071 299.4303,227.134071 C297.1053,228.358071 295.9413,229.230071 297.2283,232.441071 C298.5633,235.770071 298.7133,239.679071 294.0533,241.786071 C292.8863,242.314071 292.6103,244.810071 291.9253,246.401071 C292.4353,246.709071 292.9453,247.016071 293.4553,247.324071 C287.9313,250.816071 282.6263,254.756071 276.7863,257.602071 C274.0903,258.916071 270.3173,258.457071 267.0893,258.171071 C256.5713,257.240071 246.0773,256.043071 235.5803,254.886071 C233.6103,254.669071 231.6523,253.786071 229.7243,253.886071 C227.5653,253.997071 224.7093,254.202071 223.4613,255.561071 C220.7753,258.484071 217.8383,260.084071 213.9873,260.208071 C205.5233,260.479071 199.5803,265.260071 193.5393,270.594071 C189.9063,273.801071 184.9383,275.614071 180.3813,277.629071 C176.7003,279.258071 172.4173,279.904071 173.8093,285.654071 C173.9743,286.338071 172.7493,288.067071 172.0603,288.129071 C168.3643,288.466071 164.6303,288.568071 160.9163,288.477071 C157.7843,288.400071 154.6623,287.948071 150.7933,287.595071" id="潘店镇" fill-opacity="0" fill="#5BC3FC"></path>
            <path d="M205.937,320.287371 C201.494,323.125371 197.381,325.869371 193.133,328.385371 C192.09,329.002371 190.596,329.113371 189.328,329.054371 C180.247,328.631371 171.17,327.770371 162.095,327.823371 C159.5,327.838371 156.659,330.080371 154.399,331.886371 C151.544,334.168371 148.871,334.865371 145.229,333.994371 C140.418,332.845371 135.278,331.445371 130.559,332.115371 C127.461,332.555371 124.695,336.301371 122.09,338.879371 C120.549,340.405371 119.612,342.540371 118.109,344.855371 C118.316,345.255371 118.827,346.248371 119.527,347.606371 C112.521,352.762371 105.479,357.988371 98.372,363.123371 C97.468,363.777371 96.195,364.375371 95.143,364.299371 C87.928,363.771371 80.729,363.027371 73.518,362.425371 C71.668,362.270371 69.674,361.950371 67.956,362.441371 C62.526,363.992371 57.216,365.957371 51.814,367.613371 C50.268,368.087371 47.906,368.842371 47.045,368.122371 C42.473,364.297371 37.641,365.265371 32.564,366.327371 C31.368,366.578371 29.905,365.558371 28.072,364.962371 C33.451,356.160371 31.898,348.069371 27.646,339.967371 C26.73,338.222371 26.837,335.927371 26.541,333.875371 C26.378,332.742371 26.813,331.144371 26.199,330.516371 C21.648,325.863371 19.707,318.582371 11.858,317.157371 C8.246,316.501371 4.913,314.315371 0,312.196371 C8.105,305.190371 14.991,298.758371 22.389,292.983371 C29.452,287.469371 37.081,282.682371 44.406,277.497371 C54.299,270.494371 64.186,263.481371 73.984,256.346371 C79.996,251.968371 86.063,247.895371 94.019,249.325371 C94.957,249.494371 95.654,250.859371 96.521,251.601371 C97.177,252.161371 97.901,252.655371 98.64,253.103371 C101.41,254.780371 104.317,256.267371 106.902,258.188371 C107.593,258.702371 107.322,260.506371 107.507,261.818371 C108.847,262.194371 110.424,262.637371 112.809,263.308371 C111.328,268.451371 109.901,273.405371 108.37,278.721371 C112.841,279.487371 117.983,282.600371 123.913,279.944371 C124.766,279.561371 126.412,280.369371 127.431,281.028371 C131.788,283.846371 135.385,288.992371 142.874,283.663371 C141.019,291.846371 144.081,295.987371 150.18,298.098371 C152.09,295.835371 159.371,294.397371 162.247,295.778371 C163.228,296.249371 164.816,297.093371 165.299,296.714371 C170.084,292.962371 173.654,297.139371 177.444,298.644371 C178.829,299.193371 179.486,301.607371 180.44,303.192371 C181.171,304.405371 181.579,305.975371 182.6,306.822371 C185.783,309.461371 188.99,312.180371 192.561,314.214371 C196.606,316.517371 201.056,318.113371 205.937,320.287371" id="仁里集镇" fill-opacity="0" fill="#5BC3FC"></path>
            <path d="M787.6186,175.203071 C785.3006,175.203071 783.1316,175.744071 781.3886,175.114071 C771.3886,171.496071 764.2816,173.394071 756.9956,181.631071 C754.4336,184.527071 751.5916,187.305071 748.4226,189.472071 C747.2046,190.306071 744.6056,189.640071 742.8296,189.062071 C732.0186,185.547071 721.4336,181.197071 710.4476,178.400071 C696.8976,174.952071 682.9346,173.141071 669.3356,169.858071 C661.3886,167.939071 653.7756,164.604071 646.0656,161.761071 C641.4026,160.041071 636.6986,158.326071 632.2726,156.095071 C627.1936,153.534071 622.2506,150.631071 617.5276,147.462071 C612.1286,143.838071 607.0376,139.758071 601.4966,135.640071 C610.0356,131.270071 618.0376,127.380071 625.8016,123.066071 C627.9296,121.884071 629.9736,119.703071 630.9456,117.493071 C632.3786,114.235071 634.9946,112.533071 637.7786,112.849071 C643.5036,113.498071 645.2996,110.038071 647.4006,105.346071 C644.6006,104.067071 641.9806,102.869071 637.9796,101.041071 C639.7026,99.0460713 640.8846,96.8720713 642.7116,95.7050713 C649.8056,91.1720713 657.0386,86.8450713 664.3446,82.6580713 C672.4006,78.0410713 680.7886,76.1600713 690.0736,79.2090713 C694.0866,80.5260713 698.5996,80.2560713 702.7946,81.1350713 C703.7156,81.3280713 704.2826,83.3240713 704.9576,84.5200713 C705.3916,85.2880713 705.5906,86.2190713 706.1266,86.8920713 C708.7696,90.2120713 716.1986,90.8800713 720.3726,89.9890713 C723.7226,89.2740713 727.4986,84.8700713 731.4476,89.6780713 C729.8936,91.0830713 728.4636,92.3750713 726.5356,94.1170713 C732.1176,97.7090713 737.4086,101.049071 742.6296,104.496071 C746.0256,106.738071 751.1956,108.491071 752.2646,111.598071 C754.4406,117.926071 760.6546,120.446071 763.3136,126.036071 C764.5956,128.731071 767.2036,130.795071 769.6716,133.685071 C767.9696,135.180071 765.8176,137.070071 762.8556,139.671071 C764.0776,140.704071 765.2526,141.696071 766.7466,142.957071 C764.3386,143.943071 761.7506,144.799071 759.3576,146.032071 C756.0916,147.715071 756.3046,149.622071 759.1196,151.906071 C762.7026,154.814071 765.1266,158.908071 770.1376,160.322071 C773.8586,161.371071 776.9726,164.809071 780.6896,165.576071 C785.6606,166.601071 786.9416,169.534071 787.6186,175.203071" id="晏北街道" fill-opacity="0" fill="#5BC3FC"></path>
            <path d="M419.6755,165.948671 C417.5415,168.200671 416.4275,169.376671 415.1605,170.714671 C418.4925,176.144671 421.9615,181.552671 428.3555,183.511671 C430.9075,184.293671 434.0595,183.586671 436.8405,183.051671 C441.5035,182.154671 445.3755,181.487671 448.8965,186.446671 C451.0235,189.442671 455.5905,190.710671 459.3195,192.906671 C455.6485,197.751671 449.2415,199.336671 443.7185,202.490671 C438.1725,205.657671 429.8115,202.803671 426.7265,210.252671 C427.5595,212.401671 428.1875,214.335671 429.0595,216.152671 C429.6025,217.285671 430.3485,218.922671 431.2925,219.153671 C434.7315,219.995671 438.2785,220.503671 441.8135,220.818671 C444.3825,221.047671 447.0075,220.599671 449.5875,220.764671 C454.3855,221.071671 459.1695,221.605671 463.4745,222.001671 C461.0025,225.044671 458.3575,228.721671 455.2415,231.943671 C453.8495,233.383671 451.5425,234.614671 449.5935,234.702671 C445.6455,234.882671 441.6605,234.188671 437.6865,233.909671 C429.1215,233.308671 420.5525,232.761671 411.9885,232.147671 C410.0085,232.006671 407.8085,232.173671 406.1095,231.363671 C399.7845,228.346671 393.8475,229.901671 387.6685,231.886671 C382.9125,233.413671 377.9265,234.783671 372.9845,235.016671 C368.6855,235.218671 364.3245,233.307671 359.9565,233.121671 C356.2435,232.963671 352.4835,233.934671 349.5985,234.297671 C348.2535,232.630671 346.6735,230.670671 345.0925,228.710671 C345.4105,228.704671 345.7285,228.698671 346.0465,228.692671 C345.1635,224.875671 344.2805,221.057671 343.2165,216.459671 C343.2605,216.420671 344.4325,215.402671 345.6045,214.385671 C345.4915,213.907671 345.3785,213.428671 345.2655,212.950671 C336.3585,214.014671 327.4505,215.077671 318.3185,216.167671 C317.3615,212.103671 317.2605,208.096671 311.2315,208.472671 C307.5775,208.701671 306.5375,200.064671 310.2035,197.222671 C313.1455,194.942671 316.6785,192.849671 320.2555,192.057671 C336.4905,188.463671 350.6005,180.894671 363.9205,171.149671 C371.2035,165.820671 379.3325,161.522671 387.4535,157.515671 C391.0335,155.749671 395.5325,155.406671 399.6345,155.314671 C401.7415,155.266671 404.1615,156.853671 405.9705,158.292671 C409.8625,161.387671 412.0075,167.034671 419.6755,165.948671" id="刘桥乡" fill-opacity="0" fill="#5BC3FC"></path>
            <path d="M41.7588,398.213171 C42.6348,394.668171 38.5978,391.325171 34.5208,392.225171 C32.2718,392.721171 30.1458,393.747171 27.9268,394.406171 C18.5548,397.187171 10.5468,392.203171 0.7818,390.216171 C2.6328,387.714171 3.5418,385.692171 5.0968,384.532171 C9.8848,380.958171 14.8558,377.614171 19.9088,374.422171 C20.9768,373.748171 22.6938,374.049171 24.1158,373.995171 C27.3998,373.872171 30.7238,373.462171 33.9618,373.813171 C37.2728,374.173171 40.5988,375.027171 43.7418,376.155171 C49.0928,378.074171 53.3938,375.649171 57.8878,373.486171 C59.1418,372.883171 60.6558,372.765171 62.0698,372.564171 C63.0288,372.428171 64.2918,372.930171 64.9588,372.475171 C71.7998,367.796171 78.6848,369.638171 85.8668,371.616171 C89.8188,372.705171 94.1648,372.367171 98.1888,372.661171 C100.2828,376.012171 101.0238,378.353171 97.1118,381.085171 C94.7048,382.766171 93.7248,386.485171 91.4098,390.491171 C100.2368,394.802171 109.7758,399.461171 119.5358,404.228171 C116.8308,412.862171 126.9698,410.435171 130.4358,414.451171 C129.3568,415.616171 128.2558,416.805171 127.1808,417.966171 C132.0428,424.652171 137.6508,425.629171 144.2668,421.671171 C146.5828,420.286171 149.5618,419.789171 152.3108,419.386171 C158.8768,418.424171 165.4848,417.759171 171.2858,417.068171 C170.9928,418.552171 169.7168,420.955171 170.4138,422.424171 C171.5408,424.801171 173.4938,426.825171 177.1578,426.184171 C181.8508,425.364171 183.7638,427.848171 183.0798,432.354171 C181.0108,445.988171 173.7288,450.265171 157.7558,452.020171 C135.9108,454.421171 113.9778,454.444171 92.1058,451.533171 C87.1038,450.868171 82.0258,450.778171 76.6308,450.398171 C80.4578,442.498171 82.0238,442.155171 70.4848,438.193171 C71.8698,437.001171 73.1718,436.052171 74.2558,434.898171 C75.2798,433.809171 76.9828,432.275171 76.7478,431.352171 C76.4308,430.106171 74.6518,428.583171 73.3148,428.375171 C70.4368,427.928171 67.2178,427.539171 64.5328,428.381171 C56.5288,430.889171 50.5698,428.239171 45.2268,421.386171 C50.9368,419.689171 57.2738,419.033171 54.2968,409.454171 C52.1328,402.495171 53.8198,401.972171 41.7588,398.213171" id="马集镇" fill-opacity="0" fill="#5BC3FC"></path>
            <path d="M201.5111,332.161671 C202.3431,334.503671 202.6741,337.074671 204.0421,338.847671 C205.5491,340.801671 207.8031,342.541671 210.0991,343.447671 C213.8761,344.937671 218.3001,345.027671 221.8021,346.911671 C225.7801,349.051671 229.0431,352.514671 232.6171,355.402671 C232.3181,356.026671 232.0191,356.651671 231.7191,357.276671 L249.9401,357.276671 C250.0171,357.455671 250.0931,357.634671 250.1701,357.813671 C247.1491,358.600671 244.1261,359.380671 241.1081,360.177671 C239.1811,360.685671 237.1731,361.011671 235.3561,361.781671 C231.2181,363.535671 230.6501,366.989671 234.1771,369.728671 C237.9381,372.647671 241.9911,375.189671 245.8851,377.940671 C246.3871,378.295671 246.7021,378.913671 247.1021,379.408671 C243.5181,385.367671 238.2881,386.244671 232.3821,384.433671 C221.2671,381.024671 210.1051,380.436671 199.0691,384.227671 C194.6001,385.762671 190.1961,388.035671 186.4031,390.836671 C181.8271,394.214671 183.3071,399.741671 188.7181,401.560671 C192.3321,402.775671 195.8621,404.235671 199.5411,405.627671 C195.4581,412.116671 191.2681,413.059671 184.7761,411.966671 C178.0671,410.836671 171.0791,411.003671 164.2271,411.165671 C157.6781,411.319671 151.1461,412.196671 144.4951,412.764671 C145.1271,405.595671 144.1751,404.932671 132.7271,404.097671 C134.6541,398.549671 131.1361,398.296671 126.9511,397.186671 C119.2621,395.144671 111.8761,391.965671 103.5551,388.968671 C106.8091,387.465671 108.9641,386.470671 110.0641,385.962671 C110.7411,380.815671 111.2951,376.605671 111.9691,371.490671 C111.0481,370.414671 109.2431,368.306671 107.3201,366.061671 C112.1551,365.648671 115.6961,365.707671 119.0591,364.962671 C122.8211,364.129671 124.2651,361.305671 123.8271,357.431671 C123.3281,353.021671 125.2761,350.753671 129.4751,351.038671 C133.1971,351.291671 134.0451,349.673671 133.7511,346.270671 C133.5861,344.354671 133.8051,341.422671 134.9791,340.642671 C136.2341,339.809671 138.8091,341.145671 140.8201,341.222671 C144.9131,341.380671 150.4141,343.032671 152.8451,341.038671 C159.7171,335.402671 167.4781,336.738671 174.9981,335.978671 C181.3641,335.335671 187.7931,335.330671 194.1651,334.734671 C196.2161,334.542671 198.1741,333.369671 201.5111,332.161671" id="赵官镇" fill-opacity="0" fill="#5BC3FC"></path>
            <path d="M776.3967,139.749071 C779.8697,132.303071 787.5237,134.398071 792.8577,131.527071 C798.5027,128.489071 803.9207,128.344071 809.2327,132.248071 C809.5637,132.491071 810.2977,132.518071 810.6727,132.321071 C819.3897,127.731071 830.1827,131.417071 838.6507,125.033071 C841.1697,123.134071 846.2587,124.588071 848.7087,122.655071 C853.4207,118.937071 858.6437,117.171071 864.1697,115.800071 C866.9867,115.101071 870.0397,114.125071 872.7767,114.567071 C880.1347,115.755071 884.0997,110.943071 888.7397,106.873071 C890.2257,105.569071 892.4677,104.869071 894.4777,104.483071 C897.2487,103.950071 900.1317,103.770071 902.9617,103.813071 C906.8647,103.872071 911.1447,103.348071 914.5757,104.750071 C919.9937,106.966071 924.9157,110.462071 929.8357,113.733071 C930.4587,114.148071 930.2797,116.730071 929.6667,117.879071 C926.0917,124.568071 922.5417,131.296071 918.4727,137.688071 C913.9567,144.781071 908.6777,151.387071 904.1307,158.462071 C899.4287,165.779071 895.4367,167.785071 887.0577,165.935071 C886.1197,165.728071 884.8387,165.533071 884.3927,164.875071 C880.0407,158.464071 873.1127,159.353071 866.9297,159.145071 C863.9257,159.045071 859.5847,159.389071 860.2997,165.346071 C860.6157,167.986071 856.1447,169.576071 854.4167,171.592071 C851.1367,175.419071 847.5677,175.785071 843.8627,174.966071 C838.4837,173.778071 833.3257,171.560071 828.1087,169.683071 C824.0767,168.233071 820.0267,166.794071 816.1197,165.050071 C812.8247,163.578071 809.8627,161.280071 806.4897,160.101071 C804.2497,159.317071 801.3717,159.266071 799.0817,159.930071 C793.5947,161.520071 789.1607,159.559071 784.6937,156.907071 C782.0047,155.310071 779.2317,153.841071 776.4217,152.465071 C774.5707,151.558071 772.5877,150.919071 770.3087,150.020071 C773.7077,147.707071 776.5517,145.771071 779.8187,143.547071 C778.2007,141.751071 777.2387,140.683071 776.3967,139.749071" id="表白寺镇" fill-opacity="0" fill="#5BC3FC"></path>
            <path d="M921.7104,79.9919713 C914.1184,83.7179713 906.5264,87.4449713 898.4154,91.4259713 C900.8504,93.6289713 902.6544,95.2609713 904.4584,96.8929713 C904.3074,97.3239713 904.1574,97.7539713 904.0064,98.1849713 C902.1434,98.1849713 900.1024,98.6869713 898.4464,98.1029713 C888.5984,94.6249713 881.3794,99.7159713 874.8054,105.619971 C869.8934,110.031971 861.7184,111.693971 856.2104,108.158971 C853.8834,106.665971 848.3184,109.160971 846.6244,112.648971 C844.6454,116.720971 842.2764,118.721971 837.0144,118.621971 C831.9994,118.525971 826.9634,121.263971 821.8774,122.517971 C817.9254,123.491971 813.5314,122.481971 810.0094,125.673971 C809.3774,126.246971 807.0234,124.613971 805.4274,124.494971 C801.6134,124.209971 797.6724,123.617971 793.9764,124.259971 C789.0184,125.121971 784.2724,127.147971 779.3594,128.368971 C778.5684,128.564971 777.3824,127.171971 776.3784,126.513971 C778.4434,123.941971 775.8444,123.928971 774.5954,122.767971 C769.8424,118.347971 765.2894,113.703971 760.7994,109.011971 C759.0284,107.160971 760.4544,103.693971 762.9974,104.079971 C768.8644,104.970971 770.6894,100.938971 773.0754,97.1519713 C773.7544,96.0759713 775.6394,94.5099713 776.1594,94.7719713 C782.5214,97.9859713 785.9094,93.0909713 790.1934,90.1959713 C791.7404,89.1499713 794.0914,89.1889713 796.1014,88.9509713 C799.0794,88.5979713 802.4724,89.4039713 803.3144,84.9489713 C803.8264,82.2379713 804.8264,79.5949713 805.8394,77.0119713 C806.2084,76.0729713 807.1504,75.2629713 808.0064,74.6299713 C810.3804,72.8729713 812.8914,71.3009713 815.2514,69.5279713 C816.1494,68.8529713 821.9364,65.2399713 823.6114,64.1839713 C827.6274,61.6519713 830.8194,63.8599713 834.1804,65.6069713 C834.8804,65.9699713 835.7554,66.0649713 836.5634,66.1369713 C842.8454,66.6979713 849.1224,67.4589713 855.4174,67.6769713 C859.8144,67.8289713 864.2554,66.8499713 868.6424,67.0659713 C872.5454,67.2579713 876.3914,68.4579713 880.2804,69.1049713 C884.5524,69.8159713 888.8514,70.3579713 893.1214,71.0739713 C894.3954,71.2869713 895.6154,71.8269713 896.8564,72.2309713 C901.0104,73.5829713 905.0964,75.2289713 909.3364,76.2139713 C913.2424,77.1209713 917.3134,77.3209713 921.3114,77.8329713 C921.4444,78.5519713 921.5774,79.2719713 921.7104,79.9919713" id="安头乡" fill-opacity="0" fill="#5BC3FC"></path>
            <path d="M485.3231,173.742771 C488.0321,175.162771 489.6561,176.014771 492.2041,177.350771 C489.8471,178.005771 488.2291,178.767771 486.5741,178.859771 C480.7741,179.181771 475.5741,180.640771 471.1151,184.700771 C468.3941,187.178771 459.6301,184.325771 458.4691,180.931771 C457.4261,177.880771 450.5601,173.582771 446.8501,173.720771 C444.7261,173.799771 442.5791,173.838771 440.4911,174.187771 C438.5411,174.514771 436.6561,175.227771 434.8231,175.748771 C432.6111,174.109771 430.4671,172.520771 427.1981,170.098771 C432.1421,167.778771 436.4641,165.279771 441.0941,163.664771 C459.2571,157.325771 477.5511,151.363771 495.7071,145.006771 C498.8281,143.914771 501.9201,142.001771 504.2951,139.711771 C507.3911,136.725771 506.9741,131.515771 504.0201,127.256771 C502.3351,124.828771 500.5081,122.497771 498.2871,119.506771 C503.4941,115.499771 508.6311,111.866771 514.9711,110.164771 C523.4521,107.887771 531.8491,105.237771 540.4191,103.371771 C547.1901,101.896771 554.1521,101.208771 561.0661,100.556771 C562.2601,100.444771 564.6651,102.157771 564.7641,103.195771 C565.4871,110.714771 568.6071,116.523771 574.6791,121.236771 C576.8661,122.933771 581.4771,125.226771 577.7601,129.806771 C579.0521,131.014771 580.3521,132.228771 582.7901,134.505771 C576.9361,137.397771 571.7941,139.938771 566.9941,142.310771 C565.8771,144.437771 564.5931,146.882771 563.2051,149.524771 C557.7451,145.797771 553.2621,146.385771 547.4821,147.130771 C536.7971,148.505771 533.8491,156.749771 528.4831,162.951771 C526.1671,165.627771 524.3161,166.696771 520.8951,165.556771 C519.1501,164.974771 516.9431,165.055771 515.1261,165.530771 C505.6571,168.007771 496.2451,170.706771 485.3231,173.742771" id="华店乡" fill-opacity="0" fill="#5BC3FC"></path>
            <path d="M715.0747,217.684971 C707.2087,215.103971 701.1767,212.197971 694.8637,211.335971 C689.4817,210.600971 686.1087,208.662971 684.3427,204.250971 C686.4577,201.838971 688.8007,199.613971 690.4797,196.968971 C690.9637,196.205971 689.8437,193.243971 688.9437,192.967971 C679.4587,190.059971 669.8527,187.550971 660.3147,184.809971 C652.0907,182.446971 643.9467,179.798971 635.6897,177.562971 C633.5517,176.984971 630.9167,176.898971 628.8677,177.611971 C624.8157,179.021971 621.1247,181.462971 617.0767,182.893971 C612.4567,184.527971 608.5127,183.888971 604.8127,179.625971 C601.3607,175.649971 596.4067,172.845971 590.5967,174.411971 C583.3347,176.369971 576.2427,178.987971 568.9427,180.764971 C562.8517,182.247971 556.6347,184.567971 550.3467,180.863971 C545.8657,178.223971 543.7667,172.004971 546.6067,167.364971 C545.5057,166.763971 543.9147,166.429971 543.4637,165.526971 C542.7257,164.049971 541.8767,161.548971 542.5797,160.632971 C544.7537,157.800971 545.6197,152.849971 550.9997,154.009971 C551.7047,154.161971 552.8027,154.195971 553.0227,154.633971 C555.2107,158.994971 558.0307,157.278971 561.6197,156.441971 C567.9087,154.974971 571.7837,150.947971 575.9817,146.684971 C577.9777,144.657971 581.3537,143.985971 584.1747,142.666971 C587.3627,141.738971 590.2907,140.728971 593.3017,140.128971 C594.0017,139.989971 595.2397,141.076971 595.7877,141.895971 C598.2027,145.502971 600.1667,149.460971 602.9337,152.756971 C603.8437,153.840971 607.2647,154.183971 608.5087,153.343971 C611.0787,151.609971 612.4697,152.722971 614.6487,153.849971 C620.9287,157.098971 627.3317,160.162971 633.8747,162.839971 C640.0477,165.364971 646.4737,167.271971 652.7537,169.544971 C653.5927,169.847971 654.3407,170.610971 654.9437,171.320971 C657.3297,174.126971 659.4417,177.211971 662.1147,179.700971 C662.8387,180.373971 665.7557,179.877971 666.6707,178.944971 C669.5257,176.034971 672.4847,176.072971 676.1687,176.866971 C687.7937,179.370971 699.5847,181.150971 711.1337,183.947971 C718.6837,185.775971 725.9237,188.880971 733.3037,191.413971 C736.3757,192.467971 739.4477,193.520971 741.8827,194.354971 C739.1977,199.884971 736.6307,205.110971 734.1207,210.362971 C731.5237,215.793971 733.9697,219.778971 739.9277,220.160971 C742.0257,220.295971 744.0917,220.929971 745.4827,221.200971 C745.4827,223.094971 745.7047,224.622971 745.4017,226.038971 C745.2097,226.935971 744.3527,228.230971 743.5957,228.385971 C731.9337,230.774971 720.2407,233.009971 708.5497,235.254971 C708.2727,235.307971 707.9407,235.073971 707.6367,234.966971 C708.0227,228.569971 704.4237,220.905971 715.0747,217.684971" id="晏城街道" fill-opacity="0" fill="#5BC3FC"></path>
            <path d="M798.5837,30.0800713 C796.0217,31.5070713 794.2247,32.5080713 791.8157,33.8490713 C793.9587,35.1750713 795.6657,36.2310713 797.3997,37.3040713 C792.4787,43.4580713 792.4787,43.4580713 797.7957,50.6370713 C794.8857,49.9860713 792.9407,49.7590713 791.1547,49.1020713 C788.4597,48.1110713 786.1617,47.3750713 784.4127,50.7290713 C783.8087,51.8890713 782.1597,52.5470713 780.9177,53.3230713 C779.5137,54.2000713 777.1087,54.6610713 776.7457,55.8090713 C775.3437,60.2430713 771.3377,59.7180713 768.2837,61.2050713 C763.7857,63.3960713 759.9367,64.1840713 756.4087,59.6780713 C755.9607,59.1050713 754.5407,59.2320713 753.5617,59.1430713 C748.9327,58.7220713 744.2797,57.9000713 739.6757,58.1070713 C736.9677,58.2290713 734.3587,60.0740713 731.6627,61.0210713 C729.1997,61.8850713 726.7267,62.9520713 724.1747,63.2810713 C717.8927,64.0900713 711.5617,64.5270713 705.0427,65.1320713 C705.0747,64.8710713 705.0747,63.6150713 705.3927,62.4460713 C707.4847,54.7490713 706.1717,47.6180713 701.7507,41.0810713 C698.4197,36.1560713 699.4667,32.0490713 702.1597,26.8720713 C708.7537,14.1940713 720.5137,8.07107133 732.2147,2.20207133 C737.0347,-0.214928669 743.4667,-0.0569286692 749.1447,0.0500713308 C754.3957,0.148071331 759.6237,1.71107133 764.8507,2.69107133 C768.0777,3.29507133 770.0167,4.62307133 770.1097,8.58707133 C770.2627,15.0190713 771.8497,16.3360713 778.4927,16.9500713 C782.3267,17.3040713 784.8557,18.5680713 786.0757,22.6930713 C786.6517,24.6410713 789.0097,26.3680713 790.9597,27.5210713 C792.9767,28.7130713 795.4767,29.0870713 798.5837,30.0800713" id="大黄乡" fill-opacity="0" fill="#5BC3FC"></path>
            <path d="M740.8419,91.7807713 C741.9699,90.7877713 742.9219,89.9497713 743.2089,89.6967713 C742.1929,87.5397713 741.5769,85.7547713 740.5529,84.2457713 C739.9639,83.3777713 738.7859,82.7737713 737.7479,82.3737713 C735.2699,81.4197713 732.7629,80.2047713 730.1829,79.9527713 C727.8469,79.7237713 725.4039,80.6567713 723.0009,81.0267713 C721.0279,81.3307713 719.0429,81.5607713 717.0639,81.8237713 L717.0639,77.5207713 C713.8569,76.1577713 710.1639,74.5867713 705.3119,72.5237713 C713.4329,70.1047713 719.5759,66.2117713 727.4399,68.3107713 C730.1979,69.0467713 734.1219,67.0167713 736.9969,65.3567713 C741.5749,62.7127713 748.3809,62.6347713 752.9219,65.3097713 C755.4009,66.7707713 758.5229,67.9257713 761.3379,67.8897713 C770.3029,67.7747713 779.5009,67.9147713 785.3319,58.9087713 C788.5599,53.9227713 791.2029,53.4477713 796.7419,55.9227713 C802.1759,58.3517713 808.6169,55.9617713 810.5509,50.3607713 C810.9649,49.1607713 809.7489,46.7317713 808.5559,45.8147713 C807.0829,44.6827713 804.8489,44.5387713 802.3319,42.6447713 C805.0719,41.4787713 807.7209,39.9717713 810.5699,39.2247713 C815.5139,37.9297713 820.9009,37.8727713 825.5399,35.9457713 C842.1759,29.0367713 859.0929,29.8167713 876.0499,33.5577713 C881.4379,34.7467713 886.4069,37.8297713 891.7939,40.1427713 C891.0589,42.5567713 889.8779,45.0327713 889.6429,47.5957713 C889.4049,50.1807713 889.5849,53.0537713 890.5119,55.4397713 C892.0579,59.4147713 890.2189,61.5947713 886.2119,62.9937713 C880.4609,65.0017713 875.7569,62.5077713 870.5849,61.5197713 C866.7459,60.7867713 862.7279,61.0357713 858.8079,60.6617713 C853.9379,60.1957713 849.0989,59.3867713 844.2249,59.0067713 C838.8459,58.5867713 833.3489,59.0287713 828.0709,58.1227713 C818.8969,56.5487713 811.5679,58.5037713 806.4549,66.7197713 C806.0019,67.4477713 804.8159,67.7137713 803.9829,68.2147713 C800.0739,70.5637713 796.1699,72.9207713 791.8999,75.4947713 C795.4089,79.5037713 795.0259,81.3427713 790.3979,82.2487713 C788.1909,82.6817713 786.4619,85.4107713 784.2399,85.9367713 C774.3939,88.2667713 765.5949,92.4067713 757.6119,98.6937713 C755.8189,100.105771 752.3479,99.3917713 749.6489,99.6567713 C750.2849,95.4017713 745.6489,96.1607713 744.1089,93.9127713 C743.5109,93.0397713 742.2159,92.6437713 740.8419,91.7807713" id="宣章屯镇" fill-opacity="0" fill="#5BC3FC"></path>
            <path d="M399.2399,301.124271 C392.6159,302.028271 392.6159,302.028271 390.1539,307.593271 C394.9539,308.522271 399.5589,309.414271 404.4579,310.362271 C399.5369,319.908271 390.7379,323.259271 380.8759,323.464271 C373.8239,323.611271 366.7439,321.812271 359.6549,321.086271 C356.7019,320.783271 353.6759,320.794271 350.7159,321.045271 C345.1339,321.517271 341.4369,324.598271 340.0959,330.034271 C338.8419,335.122271 335.7119,338.317271 331.1839,340.688271 C318.5909,347.284271 305.5699,349.955271 291.8409,344.914271 C286.6449,343.007271 282.0669,343.983271 277.5189,346.331271 C273.5359,348.387271 269.7279,350.786271 265.7079,352.761271 C264.0149,353.592271 261.7639,354.492271 260.1319,354.042271 C252.4129,351.910271 244.8189,349.323271 237.3539,346.953271 C237.7709,346.741271 238.6689,346.284271 240.2879,345.461271 C236.0239,341.816271 231.3069,340.785271 226.5519,340.550271 C221.8909,340.320271 214.0869,337.028271 213.9049,333.830271 C213.7299,330.760271 214.6309,327.428271 215.8279,324.529271 C217.5519,320.356271 216.2849,312.684271 212.4519,310.318271 C211.2739,309.591271 208.9619,309.898271 207.5259,310.534271 C202.5459,312.738271 201.9679,311.542271 198.9389,307.545271 C196.2469,303.993271 193.8199,300.970271 192.7289,296.477271 C192.3599,294.956271 188.0199,294.024271 185.3619,293.518271 C181.6359,292.810271 180.6219,291.570271 183.0789,288.323271 C188.1989,281.556271 194.5719,277.325271 203.4309,278.249271 C208.9479,278.825271 210.0179,275.969271 210.0689,271.386271 C210.1049,268.080271 210.8269,266.667271 214.4699,265.667271 C224.0319,263.044271 233.7349,261.516271 243.5419,261.369271 C250.2719,261.268271 257.1069,262.244271 263.7409,263.532271 C270.1329,264.773271 276.1689,265.092271 282.2139,262.294271 C283.3689,261.759271 285.5399,261.578271 286.1989,262.252271 C287.1069,263.180271 287.4629,265.132271 287.2849,266.549271 C286.6319,271.725271 289.2559,277.535271 293.7209,279.656271 C294.4509,280.003271 295.9399,279.929271 296.4279,279.424271 C299.6219,276.112271 302.9349,277.889271 306.1199,279.109271 C310.9279,280.948271 315.7699,282.787271 320.3249,285.152271 C322.4329,286.247271 323.6189,289.077271 325.7129,290.246271 C329.7549,292.504271 334.1379,294.154271 338.3919,296.031271 C341.2959,297.312271 344.2079,298.579271 347.1419,299.789271 C347.8709,300.090271 348.8999,300.537271 349.4509,300.254271 C353.6729,298.094271 357.1039,301.011271 360.3169,302.478271 C363.4279,303.899271 365.3849,303.488271 368.0349,302.001271 C376.9449,297.003271 386.5039,296.578271 396.2999,298.609271 C397.2379,298.804271 398.1279,299.286271 398.9919,299.730271 C399.1639,299.818271 399.1129,300.339271 399.2399,301.124271" id="胡官屯镇" fill-opacity="0.5" fill="#6DD5FF"></path>
        </g>
    </g>
</svg>