<?xml version="1.0" encoding="UTF-8"?>
<svg width="647px" height="946px" viewBox="0 0 647 946" version="1.1" xmlns="http://www.w3.org/2000/svg" xmlns:xlink="http://www.w3.org/1999/xlink">
    <title>svg-齐河</title>
    <g id="热线" stroke="none" stroke-width="1" fill="none" fill-rule="evenodd">
        <g id="画板" transform="translate(-618.000000, -81.000000)" fill-rule="nonzero">
            <g id="svg-齐河" transform="translate(618.853619, 81.849396)">
                <g id="编组-7" fill="#0055A4" fill-opacity="0.403114" stroke="#85C3FF" stroke-width="1.3">
                    <polygon id="路径" points="239.034961 548.668021 237.484256 548.28293 236.895761 551.950838 235.767956 551.583983 235.669588 551.950838 235.179462 551.794013 232.579775 562.900716 232.874667 563.110746 231.746862 567.143579 228.607866 565.991525 228.804388 563.947648 227.921002 563.685915 228.656835 561.22348 224.243769 559.284725 226.401225 553.62786 224.73411 552.99777 225.420759 550.483632 224.045098 551.165425 222.474848 551.217128 223.848361 547.917791 220.612284 546.188852 220.366577 546.765737 219.630744 546.502502 216.786639 545.507059 217.473288 543.359776 212.765544 542.102599 213.991504 539.273524 215.365016 539.745286 215.855357 537.649706 211.490186 536.184002 212.226019 533.826689 212.471727 532.883163 212.471727 531.731109 212.765544 529.635314 212.617991 529.705467 212.324388 529.845344 207.07712 528.169824 204.036492 528.165319 205.752792 524.132272 205.311636 523.348574 197.369964 528.428554 189.424641 535.290677 187.757525 536.076091 186.826243 537.281349 186.433197 536.809587 187.904864 532.566509 187.021692 531.519577 185.893887 535.34238 182.951413 526.124446 182.510257 524.238896 181.382452 522.928515 180.352801 521.98649 179.46963 522.825109 174.831475 521.745996 172.725351 519.587987 170.012691 516.807396 167.601581 513.211356 165.533258 510.124838 160.143162 495.408366 160.656269 493.993077 163.793977 485.339585 165.046569 483.74473 165.182524 483.571171 170.026437 477.401567 174.883881 471.697505 175.606183 470.84816 179.91186 460.787102 180.460191 458.956259 183.248453 449.665168 184.543141 443.055767 184.951007 440.970699 185.645817 434.178514 185.634434 434.15277 185.651616 434.131316 186.020607 430.516827 186.337191 428.888505 188.051128 420.084408 189.165402 415.865788 189.671637 413.948272 191.081661 408.609563 198.965128 399.292514 199.749072 398.817747 207.45642 394.156111 214.183516 398.759823 214.200698 398.775055 214.217881 398.782778 214.565179 399.020054 215.225624 399.47208 215.923871 400.234538 219.606688 404.25836 221.343607 406.15764 226.847966 409.180227 227.174859 409.359793 236.302756 408.401035 240.482787 405.157906 242.714342 403.427465 241.112305 407.563919 242.092771 408.297415 239.520577 417.00261 238.660172 419.914068 239.445189 420.540939 238.36528 424.30925 241.210674 426.193299 246.898883 427.135323 246.898883 427.763911 248.95797 428.077347 248.172953 431.111948 249.056339 431.4271 248.172953 434.043142 248.95797 434.253172 249.841357 431.845444 252.782757 432.89259 251.998813 435.038371 254.499056 436.085518 255.480597 433.416056 258.128179 434.201469 258.618519 432.212299 260.531342 432.735765 261.119837 430.32825 261.609963 430.433158 262.100303 428.234172 265.680241 429.594755 266.023029 428.54911 265.483719 428.444202 266.268736 425.827945 269.260394 426.665062 269.014687 427.448759 268.965503 429.961395 270.92751 430.275046 273.281489 430.013098 276.370227 430.903419 276.223962 433.049415 274.212771 432.787468 274.163586 433.154323 276.273147 433.677789 276.174778 435.352022 277.644296 435.511636 277.547216 437.814242 279.214332 437.917863 279.508149 439.801911 283.823921 439.801911 283.922289 439.174825 285.098205 439.174825 285.098205 440.221971 287.943384 440.325377 288.727327 439.279947 289.315822 439.488475 290.492812 439.698505 290.787703 439.174825 293.141467 439.488475 298.829892 440.430499 298.929335 441.317602 296.329648 442.730102 293.975669 455.344773 294.46601 455.39669 294.221377 457.700799 293.731251 461.050337 292.243476 463.283005 291.916582 463.773003 289.904317 468.431421 289.218742 472.149531 289.218742 473.720143 288.531878 476.284483 285.687774 475.447366 285.491251 478.221736 283.333795 482.463311 280.023404 481.912385 279.453166 485.232961 279.214332 486.625509 281.911098 487.254097 281.788889 487.593492 284.338317 487.280056 283.777099 490.472984 284.661559 490.495724 284.46611 492.066337 284.759928 492.066337 285.005635 491.124312 285.348423 490.128869 285.838549 490.023961 285.495761 493.375216 286.917384 493.690154 287.188006 492.827293 287.457768 492.906457 287.31043 493.613994 287.579977 493.53483 287.800556 492.434694 288.241712 492.487898 287.997078 493.796778 288.707997 493.953388 289.148939 491.256681 289.615224 491.230722 290.963607 493.770819 291.528047 493.796778 291.77268 492.25191 292.140597 492.06934 292.21491 491.256681 292.679907 491.256681 293.146193 487.958845 293.293531 487.958845 293.685503 488.246323 296.382269 488.821706 296.505552 488.325486 300.158945 488.980033 299.546395 492.381274 305.038082 493.11477 305.175326 492.75714 306.608332 489.030234 309.647885 489.5537 309.844408 488.08821 311.364185 487.560024 309.305098 484.837358 308.421712 484.368599 308.397656 484.158569 308.667419 484.158569 312.466861 487.561526 312.663384 487.168927 315.655042 488.007545 316.145168 489.001272 324.139461 489.944798 323.746415 495.703567 323.15792 495.598659 322.765948 499.788317 320.215447 499.788317 319.136826 508.167848 321.687328 508.586406 319.921844 519.269831 322.569426 519.793511 321.785482 524.1932 322.471057 525.450161 319.038457 524.821788 316.782847 524.1932 316.095984 527.9643 313.906525 527.379906 312.565015 527.020774 311.87944 529.954972 307.171482 529.221476 303.934332 528.17433 302.855711 532.574232 300.207915 531.945644 291.577231 530.1635 291.086891 531.525584 287.359614 530.58356 285.202158 530.268622 284.613663 534.144845 277.061601 532.677638 271.275022 531.735614 270.48979 536.345332 269.411169 536.450455 270.293267 531.735614 269.654514 531.367257 268.821601 535.348602 263.91712 535.034951 262.641762 540.16835 257.247155 540.010023 255.629224 546.035244 254.745838 546.13865 254.010004 549.698433 251.313238 549.174753 251.313238 550.011869 249.695092 549.855044 249.841357 548.49296 248.32158 548.179524 248.075873 548.754693 246.457942 547.864586 245.918417 550.378724"></polygon>
                    <polygon id="路径" points="280.039298 644.173521 279.118325 643.895054 277.746102 646.517318 272.154757 644.105084 271.861154 644.943702 269.01705 643.895054 268.820312 644.525144 264.99574 642.741498 264.701064 643.686526 262.151636 640.854446 262.053267 641.589444 261.268249 641.169384 261.464772 639.072302 259.601134 638.548836 259.404611 639.492362 254.40305 639.17721 252.834089 639.805798 253.422584 634.562986 250.675559 634.249336 250.381956 633.09578 249.155782 632.312083 249.117981 632.199452 247.390298 626.964149 245.331211 627.489331 244.447824 632.102053 242.68234 630.739969 241.898396 630.843375 241.996765 629.794941 241.653978 629.715778 231.329761 627.332506 217.476724 624.133572 216.593552 628.222827 213.51856 626.464926 212.377009 625.812095 211.788514 623.819921 211.678762 623.590154 211.629578 623.486748 204.9231 609.456574 202.569122 606.835812 193.947459 604.658065 193.477952 604.539212 195.16225 598.060678 198.498843 583.700119 195.94963 581.814569 193.497282 578.983992 194.382816 577.682621 195.851261 575.526113 196.439756 573.325626 196.047784 570.809771 194.735913 569.746105 193.203679 568.504161 192.02669 563.789535 189.181296 559.493253 185.651616 556.140497 187.941591 548.033425 188.640912 545.55726 188.789324 545.033794 188.985847 541.57613 187.612335 539.900395 186.826243 537.281349 187.757525 536.076091 189.424641 535.290677 197.369964 528.428554 205.311636 523.348574 205.752792 524.132272 204.036492 528.165319 207.07712 528.169824 212.324388 529.845344 212.617991 529.705467 212.765544 529.635314 212.471727 531.731109 212.471727 532.883163 212.226019 533.826689 211.490186 536.184002 215.855357 537.649706 215.365016 539.745286 213.991504 539.273524 212.765544 542.102599 217.473288 543.359776 216.786639 545.507059 219.630744 546.502502 220.366577 546.765737 220.612284 546.188852 223.848361 547.917791 222.474848 551.217128 224.045098 551.165425 225.420759 550.483632 224.73411 552.99777 226.401225 553.62786 224.243769 559.284725 228.656835 561.22348 227.921002 563.685915 228.804388 563.947648 228.607866 565.991525 231.746862 567.143579 232.874667 563.110746 232.579775 562.900716 235.179462 551.794013 235.669588 551.950838 235.767956 551.583983 236.895761 551.950838 237.484256 548.28293 239.034961 548.668021 245.918417 550.378724 246.457942 547.864586 248.075873 548.754693 248.32158 548.179524 249.841357 548.49296 249.695092 549.855044 251.313238 550.011869 251.313238 549.174753 254.010004 549.698433 254.745838 546.13865 255.629224 546.035244 257.247155 540.010023 262.641762 540.16835 263.91712 535.034951 268.821601 535.348602 269.654514 531.367257 270.293267 531.735614 269.411169 536.450455 270.48979 536.345332 271.275022 531.735614 277.061601 532.677638 284.613663 534.144845 285.202158 530.268622 287.359614 530.58356 291.086891 531.525584 291.577231 530.1635 300.207915 531.945644 302.855711 532.574232 303.934332 528.17433 307.171482 529.221476 311.87944 529.954972 312.565015 527.020774 313.906525 527.379906 316.095984 527.9643 316.782847 524.1932 319.038457 524.821788 322.471057 525.450161 322.756713 524.835518 323.794311 522.601348 324.260596 520.463076 327.128756 517.783102 328.010854 517.96417 328.894241 518.306568 329.482735 516.421018 338.310156 519.040064 339.290408 513.90688 342.032922 514.850406 345.077201 515.897337 344.586861 519.250094 345.470247 519.87718 345.567327 520.29724 346.940839 520.402148 346.842471 522.077668 349.588421 522.706256 349.392972 524.800334 351.648797 525.220394 351.256825 526.582478 354.689425 527.106159 353.707885 531.085787 354.296379 531.085787 354.10093 532.552779 355.571523 532.867931 356.258386 530.038641 359.102491 530.353793 358.808888 533.704833 360.47493 533.957555 360.768533 534.000248 360.962908 534.028996 361.185634 534.062463 362.357039 534.233019 363.036815 533.411134 364.168056 532.560502 365.601062 531.482892 367.243049 530.248671 369.467945 530.612522 378.129557 532.029313 379.110023 526.477571 380.680059 526.477571 380.875507 524.06834 379.895041 521.76273 380.973662 518.621506 380.581904 510.869061 379.503069 510.450503 379.503069 507.412899 378.227926 507.099463 378.718051 503.748208 379.796672 503.956736 379.99341 506.680905 381.268553 506.99434 381.955417 508.251517 383.524163 509.193541 384.602999 504.795355 384.896602 507.622929 387.34895 507.622929 387.545472 505.737379 389.60456 505.842286 389.702714 504.900262 389.988585 504.900262 391.370044 504.900262 391.76309 504.166766 395.807165 505.51512 397.652547 506.13148 401.176643 507.307991 401.373166 508.250015 403.923667 509.088419 403.727144 510.659031 407.846608 511.706177 407.258113 514.533752 410.690712 515.37237 410.397109 517.04789 412.298549 524.526373 412.597951 525.704386 412.848168 526.686099 413.180646 527.439332 414.418204 530.247169 418.046252 535.904033 419.811736 535.380567 420.008259 537.056088 431.190733 534.030712 435.494047 532.866429 435.88022 537.025624 435.890529 542.148295 435.895254 544.268332 435.341983 547.044204 434.119461 553.181842 433.703434 554.614079 432.321975 559.366892 431.922056 560.741204 427.924802 565.751245 427.761355 565.845426 422.477575 568.886248 417.847367 572.266251 417.486323 572.5297 415.749405 574.051398 413.971463 577.271786 413.46394 579.104132 412.949759 580.93948 412.65723 589.630946 412.652719 589.761812 412.53051 593.409769 412.796621 596.27081 412.320241 599.046896 411.815081 601.996326 411.593429 603.285254 409.237302 608.652925 408.871533 609.13992 407.637413 610.783474 406.398782 611.710481 404.868695 612.845801 400.433937 615.913869 394.469091 620.042599 394.137687 620.270865 393.760535 620.532812 393.230246 620.899453 391.691139 622.139896 384.134351 625.538134 381.507388 626.71915 379.089405 627.807273 374.193085 630.009477 369.562878 633.520345 368.473733 634.138421 358.694626 639.685658 357.733704 639.86973 354.895183 639.997593 346.882634 639.040336 342.029486 638.016145 337.633602 638.57458 335.97787 641.135916 335.974433 643.736727 329.434625 644.576847 329.434625 645.415465 327.326353 645.625495 327.12983 644.62855 323.010582 645.363762 321.686039 645.940433 321.686039 645.520373 325.561084 644.105084 325.462715 640.854446 325.167823 640.854446 325.315376 636.76519 324.825036 636.660068 324.87422 635.40139 323.990834 635.349687 324.138387 633.09578 317.690074 631.782396 311.778924 630.578638 311.778924 629.74002 307.855983 631.942224 302.291057 632.817313 301.186233 632.990872 294.460211 642.367134 293.438722 643.790146 291.966841 647.775781"></polygon>
                    <polygon id="路径" points="478.55876 389.056395 477.283616 388.847867 475.714655 388.742744 475.763839 387.749017 470.418202 387.277254 470.418202 386.702085 466.78908 386.806993 466.742258 385.550031 464.633986 385.393206 456.885401 383.614066 456.934371 385.07977 451.049638 383.614066 451.098822 384.085828 449.726384 383.824095 449.382308 384.76612 445.949708 384.557591 445.949708 382.830368 444.576196 382.465015 444.08607 385.07977 443.595729 385.708144 443.399207 386.753788 442.174321 386.33523 442.41874 385.184678 441.977798 385.07977 442.467924 381.889846 442.222217 381.784724 441.487458 384.97615 441.192781 384.817823 440.948147 386.021794 440.212314 385.864969 441.290935 381.679816 440.604286 381.36638 439.771158 382.203282 439.669567 382.322134 439.281032 382.778665 438.250307 382.830368 438.051422 383.618785 432.069394 381.525994 433.049861 379.32851 425.88977 377.54937 424.22244 381.212558 422.850216 380.479062 419.809374 390.628509 419.122725 390.733417 417.357241 395.44225 416.376774 394.91857 415.591757 396.48768 404.0186 393.976545 402.449638 390.733417 399.507165 386.756792 399.212273 387.698816 395.878042 386.966822 394.015263 387.386882 393.133165 384.875747 393.623291 382.259705 391.128847 384.09205 387.64019 386.654888 380.186496 395.025194 380.676622 396.594304 378.998123 401.339394 378.714615 402.141541 376.753682 401.407831 375.183647 406.221572 371.94757 405.5947 372.144093 404.339025 367.683131 409.610799 365.76902 411.87243 360.585756 409.343059 359.216754 408.674997 349.684428 404.024088 349.487905 401.199517 346.153459 399.838935 346.055305 398.164702 343.309354 397.746358 343.014463 393.456083 340.366881 392.724089 340.366881 384.562311 335.413216 383.865286 335.265877 383.184995 334.677383 383.133292 334.628198 382.399582 334.138072 382.399582 334.088888 381.302449 332.813744 381.144122 332.961083 378.111023 329.33196 377.84929 330.852811 368.381636 329.38093 368.538461 329.479299 365.661973 328.20394 365.661973 328.160555 359.87274 328.156045 359.332541 329.969425 359.019105 329.969425 358.392018 329.282776 358.392018 329.185696 355.043767 328.890804 352.742877 334.090176 352.754891 334.383779 346.480165 338.699765 346.061821 343.406435 355.579676 344.486344 355.371148 345.368442 352.336547 346.055305 352.441455 349.193013 345.224705 348.409284 343.969245 348.801041 332.883781 346.741954 332.046665 352.920504 325.981969 352.135487 325.771939 352.920504 321.590004 351.645361 320.857795 353.312476 314.164726 357.138336 315.001627 357.431939 313.851075 358.51056 314.061105 359.4921 311.133128 360.030337 310.40564 361.453034 311.502987 361.600587 310.927604 363.249446 312.265445 363.856197 312.756946 363.120364 315.162958 364.836664 313.437237 372.388726 319.083375 371.015214 321.279357 372.388726 322.378206 372.928037 321.332776 373.467347 321.593007 374.15421 320.809096 374.546182 321.174449 371.996754 323.894112 372.633145 324.574403 375.3312 322.011566 376.164113 322.535032 373.810134 325.149572 375.380169 326.560356 374.496998 327.815816 376.017849 329.174896 377.291918 330.377152 379.548817 331.265971 380.185207 332.730174 380.234392 333.672198 380.627438 334.352489 381.950692 334.874454 382.294768 332.626554 382.539186 332.626554 383.814545 327.449175 391.365533 333.255142 391.855659 332.731676 394.014189 334.405694 395.361499 335.588212 397.348635 337.333671 400.948118 339.045876 403.723708 340.36677 405.438934 340.932928 408.594898 341.975569 410.687276 342.666373 411.248279 342.839932 418.434788 345.0726 421.218325 346.099794 426.081783 347.895668 428.635506 348.837693 431.905947 349.834423 434.814271 350.720239 439.255903 352.216193 442.267965 353.229872 442.691939 353.336282 442.907792 353.389486 442.819947 354.1749 443.862055 354.541755 443.898568 357.509421 445.971401 361.157163 446.142795 361.561991 446.290348 361.863413 446.547439 362.059712 446.915355 362.25451 447.884224 362.399107 447.074077 367.27678 448.374564 367.576485 449.196094 362.595407 450.347955 362.803935 450.887265 359.496875 451.438173 356.148838 461.098508 356.829129 463.763272 356.647847 467.278132 356.410571 475.495365 356.410571 477.281254 356.410571 482.872598 356.410571 485.716703 356.410571 485.761377 356.893061 485.812709 357.456001 486.989698 357.456001 487.135963 357.926262 492.579754 358.083088 503.515447 361.117688 504.920961 361.60168 509.595628 363.210265 510.479015 362.686799 517.248207 364.835584 530.393762 369.010224 533.60471 370.02991 532.806161 382.446779 533.336236 385.308036 533.327215 385.382479 533.353418 385.403933 534.58174 392.040794 536.583911 405.019317 538.764133 410.945637 539.185745 411.114477 540.522744 411.648669 545.585947 411.3185 549.70541 411.706594 549.73505 411.666905 552.615882 411.950091 552.644447 411.988064 554.593782 412.359424 553.845492 417.482096 556.873448 416.107784 556.718162 420.38583 557.062024 422.539335 557.67801 426.400325 557.492871 427.359083 556.031299 427.521915 556.323828 429.640236 557.063312 431.662874 551.400017 433.962477 550.392059 434.753897 545.253469 438.788447 542.491624 440.3331 537.989425 445.607878 537.4935 446.189268 536.359896 447.516383 534.908634 449.217862 534.051665 450.222316 532.974118 451.319449 532.57871 451.722775 530.870357 453.462226 528.478577 454.758877 524.448462 455.685669 524.410661 455.694894 522.550459 456.122463 514.726271 456.904873 512.167823 457.428339 511.074382 453.678478 517.400271 451.5844 520.685532 448.234647 520.195191 443.891167 519.459358 443.94287 518.822968 443.262579 516.664438 443.157671 516.615253 442.372472 517.056195 442.372472 517.252933 440.069866 515.781051 439.441277 515.92839 437.295282 515.487448 436.510083 515.339895 434.940972 513.820118 434.887767 514.21209 431.381404 512.790682 432.009992 513.770934 428.031651 513.379177 427.87504 514.113936 424.99705 512.838578 425.939075 512.202187 425.310486 509.994473 426.619366 509.455163 425.729045 509.553317 424.892143 508.866668 424.630195 509.161345 424.526789 508.720403 423.688171 508.915638 422.381008 509.308898 422.432711 509.601427 420.968723 507.575416 420.591141 505.383595 420.183309 505.236257 420.758693 504.304975 419.816669 501.411685 418.874644 499.597017 418.666116 499.254229 419.136377 497.142521 419.347909 487.285664 417.201913 487.972313 414.742696 487.482187 414.272435 487.285664 415.057634 486.647985 415.266162 486.893692 412.023033 484.441559 411.446148 484.195852 411.081009 482.774229 411.813003 482.333288 410.870979 481.351532 410.29581 481.59724 408.098111 480.223727 407.941286 480.848734 403.139774 480.959561 402.290643 481.449901 402.395551 481.59724 397.947163 481.302563 393.97204 482.40395 393.973542 482.776592 393.973542 482.432516 389.161303"></polygon>
                    <polygon id="路径" points="129.498265 665.484376 129.106293 667.89661 131.557567 668.10664 131.557567 669.260196 127.341024 668.631822 126.752529 671.987368 129.988606 676.706713 131.26375 676.706713 131.655721 681.007715 131.067227 681.532683 130.577101 685.098473 131.732398 685.313008 131.045534 689.088828 126.631394 688.145302 126.337576 691.082503 124.572092 690.767566 124.375569 692.236059 119.984196 691.254561 117.805047 690.767566 117.116036 694.333141 112.702969 692.444588 112.114475 697.060527 111.231088 696.746877 111.427826 695.173261 108.767572 694.584362 108.583506 694.543171 108.437242 694.293667 104.365889 687.305182 103.769448 686.303732 100.93329 681.535686 97.7953669 683.529362 97.9908159 682.374305 96.9794211 682.12008 94.6563704 681.535686 93.772984 683.319332 89.9484126 681.955746 89.5564407 682.899272 88.5749002 682.479212 88.5749002 681.640809 87.5944337 681.535686 87.6928025 680.592161 84.6521748 679.857163 85.3388236 676.711433 85.1423007 676.291373 78.3752556 679.962071 71.4939481 680.986262 70.6266701 681.115626 68.860112 681.532683 69.6438409 675.973217 65.8192695 675.239721 66.7013673 671.779054 66.7997361 668.5267 63.9556313 667.688082 64.4457572 664.75088 62.575246 664.388745 62.2883011 664.332322 62.582119 662.233739 60.522817 662.233739 60.522817 660.241565 60.8166348 657.305865 56.5988028 656.887306 59.0511506 653.950105 54.6367958 653.531547 54.3431927 651.224435 47.6732278 650.909497 46.7911301 647.868675 44.9274918 647.763767 44.9274918 649.335881 42.5254024 649.023733 44.3389971 647.816972 43.3585305 647.660147 41.7403848 647.188384 41.1027056 647.135179 41.053736 646.663416 39.1406986 646.296561 38.3077852 646.086531 39.3864059 644.252684 37.899705 642.052196 37.2542938 641.09494 35.3161272 638.222957 32.4720224 637.226227 32.0800505 639.061575 31.5886359 639.009872 31.4423714 639.533338 30.6573537 639.218401 30.4116465 638.589812 31.4915558 634.920617 30.3727714 634.616191 30.1283528 635.873368 29.9934716 635.82145 30.1889205 634.602461 29.9810144 634.588731 29.5877538 636.489727 27.688677 636.398335 27.0018135 636.279697 26.7322657 638.089087 24.7702587 637.682758 24.8432835 637.603594 22.9064056 637.236953 23.0288297 635.976774 21.495307 635.792702 21.8642975 632.660488 21.3855548 632.595055 20.9684538 637.758918 21.0552246 637.786164 20.8462445 639.25337 18.11855 638.822583 18.6681697 635.600908 13.7295391 629.973006 12.8255339 626.748112 11.1811851 620.884221 8.95070415 614.248861 8.4354491 610.148879 7.72130859 604.473779 10.0226666 597.514257 13.1399705 592.203008 15.6571815 587.914235 15.9348909 587.442472 16.0343336 586.804873 17.2935835 578.732771 16.4823628 573.619324 15.2720826 566.002251 14.4997369 556.047603 14.4174765 554.157548 14.4161879 554.12408 14.0083224 544.761334 13.6483526 536.511168 12.4062851 532.977559 11.3469946 529.964197 11.3274497 529.907774 10.6225447 527.903586 10.4556613 527.428605 10.3300155 526.650915 8.87875315 517.653737 9.60427695 505.45269 9.34954894 500.643669 9.34611247 500.585745 9.23872292 498.552594 9.23421256 498.471929 8.98055845 493.67342 13.0894974 495.822205 16.4376887 497.573885 24.547318 499.033368 28.3160468 500.17491 31.6824944 501.194595 38.4368675 503.042173 46.113502 505.14376 48.8560163 505.894204 52.2600503 506.944139 58.0513539 508.730789 64.0778406 510.589093 65.072053 511.038115 65.9541508 511.436721 72.7931469 514.527745 74.5493955 515.179073 81.5256354 517.76787 82.5494874 518.350762 91.5311198 523.467212 95.858489 525.786553 96.5646827 526.16392 102.177505 529.171275 104.922382 530.554598 106.164449 531.181684 110.467763 533.351922 110.629062 533.432588 116.379128 536.331602 117.831465 537.059091 120.735063 538.511065 122.822716 539.556495 129.243537 541.136333 129.249122 541.137835 132.945899 542.047893 134.782261 542.499919 145.140627 544.032344 146.866162 544.251599 157.449832 545.590727 164.234059 543.632235 165.569771 543.245643 167.847288 542.270151 168.771697 541.874334 174.897627 539.249066 174.936502 539.19436 175.033582 539.191357 176.630035 538.50656 178.639938 531.209145 175.508888 523.42924 174.831475 521.745996 179.46963 522.825109 180.352801 521.98649 181.382452 522.928515 182.510257 524.238896 182.951413 526.124446 185.893887 535.34238 187.021692 531.519577 187.904864 532.566509 186.433197 536.809587 186.826243 537.281349 187.612335 539.900395 188.985847 541.57613 188.789324 545.033794 188.640912 545.55726 187.941591 548.033425 185.651616 556.140497 189.181296 559.493253 192.02669 563.789535 193.203679 568.504161 194.735913 569.746105 196.047784 570.809771 196.439756 573.325626 195.851261 575.526113 194.382816 577.682621 193.497282 578.983992 195.94963 581.814569 198.498843 583.700119 195.16225 598.060678 193.477952 604.539212 192.219776 609.381916 191.519381 610.645099 190.650815 612.212708 186.041226 613.994637 175.378732 614.149961 172.975569 614.18493 172.406619 614.192653 171.721044 614.203165 165.248676 614.623225 162.034292 616.390137 158.383477 618.397543 154.949589 620.389717 154.609164 619.762631 154.265088 619.919456 154.559979 617.613846 153.235651 617.82216 153.137282 619.080838 149.312711 619.709426 148.773401 619.290868 148.82237 618.137312 146.713025 618.190517 145.977192 627.101237 144.15565 628.755518 135.875701 636.274977 134.747896 643.196527 137.493847 643.301649 136.906426 647.390905 141.221338 649.173049 140.92752 653.053777 138.475387 652.005129 137.985047 654.835921 134.454293 653.472335 133.519574 661.603649 132.636188 661.708771 132.636188 664.225913 130.870704 664.015883"></polygon>
                    <polygon id="路径" points="186.049172 940.305489 185.804754 940.337454 180.392965 941.05722 179.542654 941.169851 172.719767 942.606593 167.876928 943.954947 167.329671 942.262693 167.832254 942.118097 168.926983 941.480283 168.063141 939.177677 171.701499 931.125527 170.073259 928.188325 167.695225 927.552228 164.671564 930.725204 160.238094 933.571228 160.17409 933.511802 160.157982 933.498072 160.146598 933.485843 158.733137 932.170957 158.66677 932.108742 159.017505 929.903534 156.082119 929.477253 160.428818 915.550485 160.376197 914.062254 159.523739 913.508324 156.509314 912.942166 146.093602 920.464843 144.615063 920.960848 142.284065 921.741542 142.266883 921.18611 141.89553 920.143684 136.043658 914.620689 135.369467 914.287516 134.913491 915.914336 131.995072 914.436618 129.709823 912.147742 128.670936 911.861552 127.229983 907.793535 126.952489 905.863791 127.495235 904.197281 127.609498 903.783443 127.680375 903.628119 128.507704 900.479386 129.638946 896.172591 129.764591 894.789054 128.511141 894.221394 126.248443 894.538048 123.984886 893.477171 124.014525 889.983036 121.771372 889.983036 122.623831 887.038111 123.374698 884.444809 123.292438 884.250011 121.892508 883.763016 114.585079 881.223134 107.980192 880.492642 105.086903 877.040984 104.426457 875.897941 104.662929 875.086783 103.915712 874.844787 103.393369 874.703409 103.307673 874.645484 103.010633 874.549587 102.551221 875.313547 101.773076 875.730603 101.14227 876.391157 100.497932 877.222052 98.746194 879.481966 98.2238512 879.841313 96.7566952 880.468185 95.9098212 881.457406 95.4186214 882.268564 94.1411154 883.915336 87.3762181 882.699351 85.3330245 882.332496 84.592681 882.288301 84.2178914 882.265561 71.1215211 881.48787 65.6809518 873.065861 64.8617843 866.581105 64.4457572 863.289277 66.7608611 856.337263 68.7400505 849.383748 68.6234254 842.564317 70.3968565 843.354236 71.5248763 841.515669 72.1623406 841.725699 73.0446532 840.675549 73.9278248 840.728968 73.7804864 841.253936 74.2216426 841.410761 74.9574758 838.837197 78.9293857 840.360611 79.1259086 839.572195 80.2539284 839.677317 79.6654337 842.565819 80.498347 842.882258 80.6456855 842.460697 81.0868417 842.724146 81.2341802 840.308908 81.7245209 840.255704 82.095874 837.732341 83.223679 837.758299 83.7140197 836.918179 84.5480069 838.520757 84.8910091 838.704829 85.087532 838.021534 85.3078954 836.577283 86.7546474 837.890668 87.1717484 838.205605 89.253817 838.204103 89.0091836 839.490028 89.769072 839.622396 89.5725492 840.803412 92.5150228 841.144309 92.6623613 839.622396 93.5457477 839.832426 93.8885351 837.863207 94.2564517 837.784044 93.7171414 841.197728 94.3294766 841.276677 94.7957621 841.696737 95.2861027 841.617788 95.3591276 841.276677 96.0949608 838.12494 96.8058796 838.388175 97.1989254 837.100749 97.860445 837.49485 97.762291 838.045777 98.1061523 838.045777 98.1553367 837.784044 98.3267304 837.28482 98.694647 834.869583 98.694647 833.609617 99.8224521 829.932698 102.2748 830.931145 104.481225 833.24126 104.677748 830.77432 105.020536 827.255728 105.461692 827.465758 105.707399 825.522283 106.638682 825.68061 107.080912 822.633781 107.22825 822.689989 109.728494 823.632014 112.572813 824.208899 114.289113 821.636836 114.779239 821.636836 115.367734 823.212168 115.711595 821.898784 117.378925 822.372048 117.623344 821.321898 117.869051 821.268694 118.702179 821.688754 118.751364 821.111868 120.958863 821.846866 121.154312 820.901838 121.841176 821.321898 122.331302 822.162018 123.557475 822.843811 125.911454 821.058664 126.111414 821.111868 128.862949 821.840859 129.493755 822.008196 130.326883 818.753054 140.085371 821.903289 139.64443 823.425202 140.673866 824.580259 142.096563 824.580259 141.311545 826.523734 146.019503 832.510768 145.186375 839.494747 148.570005 840.599604 147.001044 842.069599 148.717343 843.068046 148.717343 843.488106 147.687692 843.172954 147.245462 846.901576 146.902675 849.05508 146.559887 849.421935 147.736877 850.262055 150.776431 851.680348 152.051789 852.310438 157.102534 853.256967 157.887552 853.572119 159.65411 853.947985 166.960465 855.889958 167.058834 855.049838 168.775134 854.788105 168.922472 856.783282 171.4719 857.046517 171.521085 856.573252 173.139016 856.67816 173.089831 856.101489 174.806131 856.101489 174.806131 856.836487 178.238945 857.046517 181.036228 856.999319 181.134382 866.454744 183.665554 867.052868 188.68666 868.239892 188.735629 867.558099 190.010988 867.348069 189.569831 863.46112 189.814465 863.197885 192.463121 863.776272 192.413936 864.038005 195.209071 864.406362 196.140354 870.446601 196.533399 872.128343 196.582584 875.910169 196.923223 879.699719 201.586507 881.022114 201.925858 881.118012 202.465168 878.807896 203.199928 876.23283 203.592974 876.44286 204.917516 871.977739 208.840242 873.027674 209.428736 870.190875 210.409203 870.507529 210.605726 869.455877 214.038325 870.295997 214.62682 867.25067 216.000332 867.565822 216.195781 866.409048 215.891869 865.514222 215.80381 865.253991 218.903931 865.876357 218.942806 865.884081 219.531301 862.837251 227.278813 863.783781 226.886841 860.632044 233.555732 861.157012 233.065391 863.152189 232.575265 863.152189 232.378742 870.085967 232.967237 871.137619 230.614332 870.927589 231.104673 872.082647 243.167955 873.237704 244.588504 872.960739 245.380395 874.923951 247.851858 880.708678 248.528412 882.291519 249.472366 884.501232 253.241954 894.429922 254.227146 898.858572 254.235093 898.895043 254.862463 901.713607 254.584753 906.493881 253.932254 908.43285 252.015995 914.127687 247.821145 918.005411 243.473157 922.024728 235.625128 926.512591 231.145695 928.2278 225.26891 930.478703 220.949487 932.132984 219.333704 932.752347 207.010753 936.02594 205.28307 936.336373 201.548706 937.578317 200.3831 937.966411 194.750948 939.147428 186.150978 940.290257"></polygon>
                    <polygon id="路径" points="274.139746 738.446516 269.619075 738.333885 265.898457 737.204571 263.200617 737.472526 261.175679 740.532871 258.315681 747.783088 256.281508 753.347059 255.444084 755.639153 254.005279 758.207998 251.299492 761.528788 245.033956 758.367827 238.148138 757.084906 236.162076 758.97346 233.612863 760.810525 232.996876 759.964183 232.925999 759.866784 233.563679 759.341817 233.024368 758.265922 231.798194 759.21095 231.871434 758.737685 231.503303 758.632563 231.528432 758.317625 231.08749 758.212503 231.160515 757.925026 230.743414 757.845862 230.670389 758.1608 229.861316 757.925026 229.983526 757.243233 229.787003 757.243233 229.412213 758.76343 220.683161 756.139878 220.927795 755.404666 219.016046 754.774576 220.633977 749.788992 220.143851 749.632167 219.456987 751.835873 217.201377 751.415813 217.642533 749.422137 216.465544 749.212107 216.170652 749.527259 215.092032 749.31723 214.798214 751.625843 207.539969 749.632167 207.246151 750.472287 204.499127 749.1072 196.555092 747.952142 197.045433 744.909818 188.414535 738.402321 187.434068 736.513553 187.463922 736.303523 188.120932 731.686296 184.322563 730.56771 186.021895 723.656887 183.864439 723.656887 184.030034 722.866968 184.94306 718.514263 183.406101 716.891948 180.290086 713.601836 177.390997 710.541277 177.092669 712.693279 176.407094 712.536454 176.063233 714.635038 173.709254 714.266895 174.1023 712.116394 173.415651 711.959569 173.807623 710.647686 172.777972 710.332748 173.268098 709.755863 171.061672 709.07407 171.159826 708.602307 170.374809 708.444195 169.540607 713.323155 169.197819 713.218247 169.394342 711.696334 169.050481 711.696334 168.855032 713.218247 167.922676 713.05992 168.461986 709.860985 168.315721 709.676914 168.659583 708.103298 168.757952 708.103298 169.002585 706.031961 169.199108 706.109623 169.370502 705.350168 169.149923 705.245046 169.541895 703.487359 168.683638 703.067299 167.752356 707.815607 166.795944 707.736443 166.329659 711.696334 165.300223 711.513765 165.839533 708.261411 165.373248 708.182247 164.957435 711.329479 163.97568 711.224571 163.682077 710.857716 163.510683 711.042002 163.215792 710.647686 160.470056 705.401871 160.052955 705.009271 156.055701 704.536007 151.764844 704.010825 151.936238 700.209261 149.582259 700.314168 149.876077 697.375465 148.012224 696.851999 148.208747 694.124827 147.871758 694.165804 145.659533 694.438263 145.854982 691.711092 142.81414 692.236059 135.262077 691.082503 133.594962 685.836474 131.732398 685.313008 130.577101 685.098473 131.067227 681.532683 131.655721 681.007715 131.26375 676.706713 129.988606 676.706713 126.752529 671.987368 127.341024 668.631822 131.557567 669.260196 131.557567 668.10664 129.106293 667.89661 129.498265 665.484376 130.870704 664.015883 132.636188 664.225913 132.636188 661.708771 133.519574 661.603649 134.454293 653.472335 137.985047 654.835921 138.475387 652.005129 140.92752 653.053777 141.221338 649.173049 136.906426 647.390905 137.493847 643.301649 134.747896 643.196527 135.875701 636.274977 144.15565 628.755518 145.977192 627.101237 146.713025 618.190517 148.82237 618.137312 148.773401 619.290868 149.312711 619.709426 153.137282 619.080838 153.235651 617.82216 154.559979 617.613846 154.265088 619.919456 154.609164 619.762631 154.949589 620.389717 158.383477 618.397543 162.034292 616.390137 165.248676 614.623225 171.721044 614.203165 172.406619 614.192653 172.975569 614.18493 175.378732 614.149961 186.041226 613.994637 190.650815 612.212708 191.519381 610.645099 192.219776 609.381916 193.477952 604.539212 193.947459 604.658065 202.569122 606.835812 204.9231 609.456574 211.629578 623.486748 211.678762 623.590154 211.788514 623.819921 212.377009 625.812095 213.51856 626.464926 216.593552 628.222827 217.476724 624.133572 231.329761 627.332506 241.653978 629.715778 241.996765 629.794941 241.898396 630.843375 242.68234 630.739969 244.447824 632.102053 245.331211 627.489331 247.390298 626.964149 249.117981 632.199452 249.155782 632.312083 250.381956 633.09578 250.675559 634.249336 253.422584 634.562986 252.834089 639.805798 254.40305 639.17721 259.404611 639.492362 259.601134 638.548836 261.464772 639.072302 261.268249 641.169384 262.053267 641.589444 262.151636 640.854446 264.701064 643.686526 264.99574 642.741498 268.820312 644.525144 269.01705 643.895054 271.861154 644.943702 272.154757 644.105084 277.746102 646.517318 279.118325 643.895054 280.039298 644.173521 291.966841 647.775781 293.438722 643.790146 294.460211 642.367134 301.186233 632.990872 302.291057 632.817313 307.855983 631.942224 311.778924 629.74002 311.778924 630.578638 317.690074 631.782396 324.138387 633.09578 323.990834 635.349687 324.87422 635.40139 324.825036 636.660068 325.315376 636.76519 325.167823 640.854446 325.462715 640.854446 325.561084 644.105084 321.686039 645.520373 321.686039 645.940433 323.010582 645.363762 327.12983 644.62855 327.326353 645.625495 329.434625 645.415465 329.434625 644.576847 335.974433 643.736727 335.972071 645.862985 337.00387 663.312851 337.200393 666.625918 334.400962 674.26423 328.783414 680.254268 323.531636 682.702972 321.455366 683.194687 316.996552 683.611529 314.893865 683.747115 306.554422 684.287315 302.543637 685.107698 299.397768 686.058732 297.124975 688.050906 296.696491 689.566598 296.705727 692.359417 297.658701 695.918985 299.256228 701.886282 301.239928 709.296329 301.078629 712.388854 299.626293 718.806675 299.224226 720.581096 296.720546 724.644607 290.248178 731.882596 285.731159 736.355441 282.739501 738.228762 278.77339 738.56215"></polygon>
                    <polygon id="路径" points="435.015304 527.717799 435.0632 528.239763 435.347782 531.295817 435.494047 532.866429 431.190733 534.030712 420.008259 537.056088 419.811736 535.380567 418.046252 535.904033 414.418204 530.247169 413.180646 527.439332 412.848168 526.686099 412.597951 525.704386 412.298549 524.526373 410.397109 517.04789 410.690712 515.37237 407.258113 514.533752 407.846608 511.706177 403.727144 510.659031 403.923667 509.088419 401.373166 508.250015 401.176643 507.307991 397.652547 506.13148 395.807165 505.51512 391.76309 504.166766 391.370044 504.900262 389.988585 504.900262 389.702714 504.900262 389.60456 505.842286 387.545472 505.737379 387.34895 507.622929 384.896602 507.622929 384.602999 504.795355 383.524163 509.193541 381.955417 508.251517 381.268553 506.99434 379.99341 506.680905 379.796672 503.956736 378.718051 503.748208 378.227926 507.099463 379.503069 507.412899 379.503069 510.450503 380.581904 510.869061 380.973662 518.621506 379.895041 521.76273 380.875507 524.06834 380.680059 526.477571 379.110023 526.477571 378.129557 532.029313 369.467945 530.612522 367.243049 530.248671 365.601062 531.482892 364.168056 532.560502 363.036815 533.411134 362.357039 534.233019 361.185634 534.062463 360.962908 534.028996 360.768533 534.000248 360.47493 533.957555 358.808888 533.704833 359.102491 530.353793 356.258386 530.038641 355.571523 532.867931 354.10093 532.552779 354.296379 531.085787 353.707885 531.085787 354.689425 527.106159 351.256825 526.582478 351.648797 525.220394 349.392972 524.800334 349.588421 522.706256 346.842471 522.077668 346.940839 520.402148 345.567327 520.29724 345.470247 519.87718 344.586861 519.250094 345.077201 515.897337 342.032922 514.850406 339.290408 513.90688 338.310156 519.040064 329.482735 516.421018 328.894241 518.306568 328.010854 517.96417 327.128756 517.783102 324.260596 520.463076 323.794311 522.601348 322.756713 524.835518 322.471057 525.450161 321.785482 524.1932 322.569426 519.793511 319.921844 519.269831 321.687328 508.586406 319.136826 508.167848 320.215447 499.788317 322.765948 499.788317 323.15792 495.598659 323.746415 495.703567 324.139461 489.944798 316.145168 489.001272 315.655042 488.007545 312.663384 487.168927 312.466861 487.561526 308.667419 484.158569 308.397656 484.158569 308.421712 484.368599 309.305098 484.837358 311.364185 487.560024 309.844408 488.08821 309.647885 489.5537 306.608332 489.030234 305.175326 492.75714 305.038082 493.11477 299.546395 492.381274 300.158945 488.980033 296.505552 488.325486 296.382269 488.821706 293.685503 488.246323 293.293531 487.958845 293.146193 487.958845 292.679907 491.256681 292.21491 491.256681 292.140597 492.06934 291.77268 492.25191 291.528047 493.796778 290.963607 493.770819 289.615224 491.230722 289.148939 491.256681 288.707997 493.953388 287.997078 493.796778 288.241712 492.487898 287.800556 492.434694 287.579977 493.53483 287.31043 493.613994 287.457768 492.906457 287.188006 492.827293 286.917384 493.690154 285.495761 493.375216 285.838549 490.023961 285.348423 490.128869 285.005635 491.124312 284.759928 492.066337 284.46611 492.066337 284.661559 490.495724 283.777099 490.472984 284.338317 487.280056 281.788889 487.593492 281.911098 487.254097 279.214332 486.625509 279.453166 485.232961 280.023404 481.912385 283.333795 482.463311 285.491251 478.221736 285.687774 475.447366 288.531878 476.284483 289.218742 473.720143 289.218742 472.149531 289.904317 468.431421 291.916582 463.773003 292.243476 463.283005 293.731251 461.050337 294.221377 457.700799 294.46601 455.39669 293.975669 455.344773 296.329648 442.730102 298.929335 441.317602 298.829892 440.430499 298.938355 439.61312 299.025341 438.964795 298.535 438.756481 299.025341 435.720164 296.769516 435.30182 296.769516 432.580656 295.789264 432.370626 295.887418 430.381455 298.928261 431.220073 299.320018 428.602315 300.10525 425.149156 301.282025 424.102224 305.008442 424.834218 305.596937 421.694495 308.245808 421.381059 308.637565 414.47324 309.814554 414.786676 310.108372 409.239439 304.126344 408.507445 305.303334 407.041955 308.735933 403.588796 310.108372 400.345667 312.070379 400.030729 313.63934 397.311066 315.111007 396.995914 315.896024 394.854638 315.993104 394.589902 319.818964 389.98619 327.66463 393.544472 327.861153 389.567632 330.803627 390.091313 330.656288 383.760164 329.528483 383.446728 329.577668 383.02817 335.413216 383.865286 340.366881 384.562311 340.366881 392.724089 343.014463 393.456083 343.309354 397.746358 346.055305 398.164702 346.153459 399.838935 349.487905 401.199517 349.684428 404.024088 359.216754 408.674997 360.585756 409.343059 365.76902 411.87243 367.683131 409.610799 372.144093 404.339025 371.94757 405.5947 375.183647 406.221572 376.753682 401.407831 378.714615 402.141541 378.998123 401.339394 380.676622 396.594304 380.186496 395.025194 387.64019 386.654888 391.128847 384.09205 393.623291 382.259705 393.133165 384.875747 394.015263 387.386882 395.878042 386.966822 399.212273 387.698816 399.507165 386.756792 402.449638 390.733417 404.0186 393.976545 415.591757 396.48768 416.376774 394.91857 417.357241 395.44225 419.122725 390.733417 419.809374 390.628509 422.850216 380.479062 424.22244 381.212558 425.88977 377.54937 433.049861 379.32851 432.069394 381.525994 438.051422 383.618785 438.250307 382.830368 439.281032 382.778665 439.669567 382.322134 439.771158 382.203282 440.604286 381.36638 441.290935 381.679816 440.212314 385.864969 440.948147 386.021794 441.192781 384.817823 441.487458 384.97615 442.222217 381.784724 442.467924 381.889846 441.977798 385.07977 442.41874 385.184678 442.174321 386.33523 443.399207 386.753788 443.595729 385.708144 444.08607 385.07977 444.576196 382.465015 445.949708 382.830368 445.949708 384.557591 449.382308 384.76612 449.726384 383.824095 451.098822 384.085828 451.049638 383.614066 456.934371 385.07977 456.885401 383.614066 464.633986 385.393206 466.742258 385.550031 466.78908 386.806993 470.418202 386.702085 470.418202 387.277254 475.763839 387.749017 475.714655 388.742744 477.283616 388.847867 478.55876 389.056395 482.432516 389.161303 482.776592 393.973542 482.40395 393.973542 481.302563 393.97204 481.59724 397.947163 481.449901 402.395551 480.959561 402.290643 480.848734 403.139774 480.223727 407.941286 481.59724 408.098111 481.351532 410.29581 482.333288 410.870979 482.774229 411.813003 484.195852 411.081009 484.441559 411.446148 486.893692 412.023033 486.647985 415.266162 487.285664 415.057634 487.482187 414.272435 487.972313 414.742696 487.285664 417.201913 497.142521 419.347909 499.254229 419.136377 499.597017 418.666116 501.411685 418.874644 504.304975 419.816669 505.236257 420.758693 505.383595 420.183309 507.575416 420.591141 509.601427 420.968723 509.308898 422.432711 508.915638 422.381008 508.720403 423.688171 509.161345 424.526789 508.866668 424.630195 509.553317 424.892143 509.455163 425.729045 509.994473 426.619366 512.202187 425.310486 512.838578 425.939075 514.113936 424.99705 513.379177 427.87504 513.770934 428.031651 512.790682 432.009992 514.21209 431.381404 513.820118 434.887767 515.339895 434.940972 515.487448 436.510083 515.92839 437.295282 515.781051 439.441277 517.252933 440.069866 517.056195 442.372472 516.615253 442.372472 516.664438 443.157671 518.822968 443.262579 519.459358 443.94287 520.195191 443.891167 520.685532 448.234647 517.400271 451.5844 511.074382 453.678478 512.167823 457.428339 511.788523 457.506001 506.853114 458.51496 506.498943 458.5864 500.779805 460.508636 497.992617 462.033552 497.448796 462.330254 493.189941 464.658819 488.275151 468.299053 483.994604 471.470741 480.943667 473.730655 478.614817 475.336237 476.898517 476.518755 469.706424 481.477093 467.968432 483.332179 466.799389 484.581632 461.355598 490.39382 461.077889 490.690522 459.189122 494.212118 459.110083 494.621451 458.505694 497.745942 458.818842 499.677188 459.126191 501.571963 459.491745 503.82587 459.211888 506.225875 458.390358 508.03076 457.593742 509.456776 455.41803 511.188718 453.160057 512.308807 449.802845 512.456407 445.521224 511.006149 442.648554 509.78716 439.614584 509.9073 439.378112 510.059405 439.211229 510.164527 437.612628 511.188718 435.778629 514.565717 435.611746 517.438987 435.523687 518.94717"></polygon>
                    <polygon id="路径" points="99.8224521 829.932698 98.694647 833.609617 98.694647 834.869583 98.3267304 837.28482 98.1553367 837.784044 98.1061523 838.045777 97.762291 838.045777 97.860445 837.49485 97.1989254 837.100749 96.8058796 838.388175 96.0949608 838.12494 95.3591276 841.276677 95.2861027 841.617788 94.7957621 841.696737 94.3294766 841.276677 93.7171414 841.197728 94.2564517 837.784044 93.8885351 837.863207 93.5457477 839.832426 92.6623613 839.622396 92.5150228 841.144309 89.5725492 840.803412 89.769072 839.622396 89.0091836 839.490028 89.253817 838.204103 87.1717484 838.205605 86.7546474 837.890668 85.3078954 836.577283 85.087532 838.021534 84.8910091 838.704829 84.5480069 838.520757 83.7140197 836.918179 83.223679 837.758299 82.095874 837.732341 81.7245209 840.255704 81.2341802 840.308908 81.0868417 842.724146 80.6456855 842.460697 80.498347 842.882258 79.6654337 842.565819 80.2539284 839.677317 79.1259086 839.572195 78.9293857 840.360611 74.9574758 838.837197 74.2216426 841.410761 73.7804864 841.253936 73.9278248 840.728968 73.0446532 840.675549 72.1623406 841.725699 71.5248763 841.515669 70.3968565 843.354236 68.6234254 842.564317 68.6154786 842.060589 68.5138881 836.140489 66.1974955 828.229718 65.339453 825.300025 60.5513826 814.443041 58.4443996 812.08251 57.7861017 811.346011 57.3644903 810.874248 54.6973635 807.886845 52.3354377 805.241626 47.0596039 799.332253 44.2646835 795.080165 39.6836601 788.111418 34.945848 784.057131 32.2742108 781.771259 28.418926 778.793081 24.5348608 775.790231 16.7519106 774.6946 9.11522494 771.557881 4.80160153 769.784962 2.94247365 768.396919 1.85461752 767.585761 0.902716551 760.621734 1.13686838e-13 754.01834 0.0605677058 744.256987 1.05585405 735.207892 1.44095297 731.713542 2.19160592 724.839405 2.5401924 721.649481 2.81102884 719.16881 4.30460269 709.877719 4.82673068 706.625365 5.44379103 703.644184 7.49600532 693.744242 9.74603115 683.619252 10.1745155 681.55714 11.1425249 674.198797 11.7595852 669.503693 12.55706 663.434492 12.5845517 662.904805 12.6964516 660.792491 13.2918193 649.49571 13.3420776 648.835156 14.1191484 647.687607 17.0936241 643.29693 17.4422106 642.782689 18.0238324 639.378229 18.11855 638.822583 20.8462445 639.25337 21.0552246 637.786164 20.9684538 637.758918 21.3855548 632.595055 21.8642975 632.660488 21.495307 635.792702 23.0288297 635.976774 22.9064056 637.236953 24.8432835 637.603594 24.7702587 637.682758 26.7322657 638.089087 27.0018135 636.279697 27.688677 636.398335 29.5877538 636.489727 29.9810144 634.588731 30.1889205 634.602461 29.9934716 635.82145 30.1283528 635.873368 30.3727714 634.616191 31.4915558 634.920617 30.4116465 638.589812 30.6573537 639.218401 31.4423714 639.533338 31.5886359 639.009872 32.0800505 639.061575 32.4720224 637.226227 35.3161272 638.222957 37.2542938 641.09494 37.899705 642.052196 39.3864059 644.252684 38.3077852 646.086531 39.1406986 646.296561 41.053736 646.663416 41.1027056 647.135179 41.7403848 647.188384 43.3585305 647.660147 44.3389971 647.816972 42.5254024 649.023733 44.9274918 649.335881 44.9274918 647.763767 46.7911301 647.868675 47.6732278 650.909497 54.3431927 651.224435 54.6367958 653.531547 59.0511506 653.950105 56.5988028 656.887306 60.8166348 657.305865 60.522817 660.241565 60.522817 662.233739 62.582119 662.233739 62.2883011 664.332322 62.575246 664.388745 64.4457572 664.75088 63.9556313 667.688082 66.7997361 668.5267 66.7013673 671.779054 65.8192695 675.239721 69.6438409 675.973217 68.860112 681.532683 70.6266701 681.115626 71.4939481 680.986262 78.3752556 679.962071 85.1423007 676.291373 85.3388236 676.711433 84.6521748 679.857163 87.6928025 680.592161 87.5944337 681.535686 88.5749002 681.640809 88.5749002 682.479212 89.5564407 682.899272 89.9484126 681.955746 93.772984 683.319332 94.6563704 681.535686 96.9794211 682.12008 97.9908159 682.374305 97.7953669 683.529362 100.93329 681.535686 103.769448 686.303732 104.365889 687.305182 108.437242 694.293667 108.583506 694.543171 108.767572 694.584362 111.427826 695.173261 111.231088 696.746877 112.114475 697.060527 112.702969 692.444588 117.116036 694.333141 117.805047 690.767566 119.984196 691.254561 124.375569 692.236059 124.572092 690.767566 126.337576 691.082503 126.631394 688.145302 131.045534 689.088828 131.732398 685.313008 133.594962 685.836474 135.262077 691.082503 142.81414 692.236059 145.854982 691.711092 145.659533 694.438263 147.871758 694.165804 148.208747 694.124827 148.012224 696.851999 149.876077 697.375465 149.582259 700.314168 151.936238 700.209261 151.764844 704.010825 156.055701 704.536007 160.052955 705.009271 160.470056 705.401871 163.215792 710.647686 163.510683 711.042002 163.682077 710.857716 163.97568 711.224571 164.957435 711.329479 165.373248 708.182247 165.839533 708.261411 165.300223 711.513765 166.329659 711.696334 166.795944 707.736443 167.752356 707.815607 168.683638 703.067299 169.541895 703.487359 169.149923 705.245046 169.370502 705.350168 169.199108 706.109623 169.002585 706.031961 168.757952 708.103298 168.659583 708.103298 168.315721 709.676914 168.461986 709.860985 167.922676 713.05992 168.855032 713.218247 169.050481 711.696334 169.394342 711.696334 169.197819 713.218247 169.540607 713.323155 170.374809 708.444195 171.159826 708.602307 171.061672 709.07407 173.268098 709.755863 172.777972 710.332748 173.807623 710.647686 173.415651 711.959569 174.1023 712.116394 173.709254 714.266895 176.063233 714.635038 176.407094 712.536454 177.092669 712.693279 177.390997 710.541277 180.290086 713.601836 183.406101 716.891948 184.94306 718.514263 184.030034 722.866968 183.864439 723.656887 186.021895 723.656887 184.322563 730.56771 184.060962 731.631375 182.68745 728.902702 181.313938 733.940203 181.246497 734.215667 179.848929 739.968214 179.452447 741.601256 178.765584 742.019814 166.996978 744.85361 166.702301 747.057316 165.231494 746.638757 164.642999 748.212373 158.85642 747.372253 158.561743 750.100927 157.025858 749.801221 156.936725 749.784487 152.923577 748.999074 152.77495 749.916855 152.335083 752.619785 152.776239 752.724692 150.557141 761.618464 149.88295 764.322895 148.97336 763.96977 148.804114 763.904337 145.174992 762.696075 144.440232 765.94993 143.851738 765.793105 144.391048 762.486045 143.017536 762.276015 140.369954 762.171107 138.898073 762.119189 138.60447 763.851132 135.563842 763.274462 135.221054 765.94993 134.142219 765.741402 132.916045 764.061162 132.278581 763.956254 131.29704 763.589399 131.199745 764.848077 131.051333 766.581307 132.326477 766.68643 131.488838 772.145493 133.54814 772.617256 132.469305 779.126254 135.754566 779.493109 138.011464 779.703139 137.96228 780.648167 138.647855 780.804992 138.746224 781.224838 136.687137 781.11993 135.229001 793.325482 135.214181 793.451629 134.674656 798.282103 137.518976 798.912193 138.009102 799.647191 138.597597 799.489079 140.166558 800.382403 140.540274 800.936333 140.804237 801.327431 139.866082 805.011859 138.951767 804.686194 138.100598 804.381769 137.266396 806.955333 136.530563 809.422274 135.010786 805.537041 133.833796 805.275093 133.637273 808.215513 132.705776 808.057186 132.264835 810.577331 132.21565 813.885893 132.607622 814.672808 132.314019 816.091101 131.381448 817.246373 129.566995 818.453133 129.861672 818.61146 128.862949 821.840859 126.111414 821.111868 125.911454 821.058664 123.557475 822.843811 122.331302 822.162018 121.841176 821.321898 121.154312 820.901838 120.958863 821.846866 118.751364 821.111868 118.702179 821.688754 117.869051 821.268694 117.623344 821.321898 117.378925 822.372048 115.711595 821.898784 115.367734 823.212168 114.779239 821.636836 114.289113 821.636836 112.572813 824.208899 109.728494 823.632014 107.22825 822.689989 107.080912 822.633781 106.638682 825.68061 105.707399 825.522283 105.461692 827.465758 105.020536 827.255728 104.677748 830.77432 104.481225 833.24126 102.2748 830.931145"></polygon>
                    <polygon id="路径" points="412.071098 153.402333 410.697585 155.386998 407.558589 158.415592 406.18615 160.29492 403.93054 161.861027 400.497941 162.80155 397.555467 162.904956 395.59346 165.620114 396.378478 166.455514 394.808442 172.617609 393.239481 171.782208 392.847509 172.722731 391.185978 171.84142 392.088695 165.263985 390.764367 166.114617 384.375548 167.032399 387.293966 156.69266 390.534768 157.738304 392.579035 151.262559 394.324975 151.725311 396.201285 152.506005 396.981792 149.197443 398.36905 150.102996 399.519622 149.771324 399.188433 147.979955 398.28679 143.102283 395.42314 134.803632 393.214352 128.404046 391.285421 124.84598 387.128371 117.177204 381.290246 109.121835 377.983292 104.557599 376.17206 102.058693 376.113855 101.927826 372.387438 93.5452917 370.102188 88.4043843 366.715122 68.4875785 366.325512 65.1288152 366.291148 64.8411235 366.12319 63.3878619 365.21489 55.5684824 365.988524 48.9496419 366.592912 43.7844921 367.118477 39.2859032 367.373419 37.1094434 368.663383 31.2153029 370.117008 24.5784415 371.722481 20.3490942 372.996551 16.9918327 373.952962 14.4699712 374.056915 14.1930062 376.180222 8.60007317 387.71343 2.27373675e-13 390.030681 0.129364735 395.558021 0.438295445 398.029699 0.674284182 398.058265 0.675785928 398.076521 0.678789421 403.728218 1.22199259 410.912364 1.65728454 412.359116 2.41373571 417.738903 5.22908134 418.903221 8.7324414 419.950054 11.8798875 425.224599 22.1417505 427.792283 27.1380611 434.952374 25.9907268 441.425816 29.0161024 444.956785 35.3792169 445.990946 37.3104629 448.584833 42.1591733 450.817677 43.5592301 452.409405 44.557677 456.757393 45.2866677 459.863313 45.8086318 467.906576 47.2696167 464.443048 61.4109199 463.850043 63.4822574 471.89352 65.5686124 470.716531 74.1247058 470.628471 74.5477693 469.539541 79.7601169 471.696997 84.5601278 478.145095 85.8203076 481.308147 86.438169 484.055172 89.7786969 482.878182 96.8753073 480.524203 96.2497226 479.739186 101.258262 468.558001 98.5448203 468.536308 98.9296965 468.166029 105.642718 465.027032 113.784758 466.989039 114.618871 466.695436 118.272835 465.910419 124.640455 464.636349 124.536834 464.144934 127.041962 461.595507 126.93684 461.547611 129.177231 460.713409 129.073611 460.567144 131.735349 459.732942 132.20561 459.193632 132.779492 458.118233 133.668311 456.059146 134.295183 455.029495 133.668311 454.146323 134.03345 452.087236 133.930044 449.782441 133.616394 447.133571 132.310732 445.564609 129.543872 444.877961 128.970205 442.425613 129.021908 438.797564 130.692922 435.95346 131.163184 433.648665 130.953154 431.048979 130.379486 430.362115 130.536097 429.773835 131.109979 429.480017 133.09443 429.115537 137.319272 428.003626 142.985147 427.743099 144.315265 425.634827 145.671342 424.016896 145.933075 422.005705 145.827953 420.730347 145.881372 418.03358 145.984778 416.071573 147.082126 415.384924 147.498967 415.188402 147.760915 414.599907 148.072849 414.158751 148.54311 413.914332 148.856546 413.472102 149.2219 413.178284 150.005597 412.883607 151.153146 412.491635 152.041965 412.393266 152.51051 412.295112 152.875864"></polygon>
                    <polygon id="路径" points="215.891869 865.514222 216.195781 866.409048 216.000332 867.565822 214.62682 867.25067 214.038325 870.295997 210.605726 869.455877 210.409203 870.507529 209.428736 870.190875 208.840242 873.027674 204.917516 871.977739 203.592974 876.44286 203.199928 876.23283 202.465168 878.807896 201.925858 881.118012 201.586507 881.022114 196.923223 879.699719 196.582584 875.910169 196.533399 872.128343 196.140354 870.446601 195.209071 864.406362 192.413936 864.038005 192.463121 863.776272 189.814465 863.197885 189.569831 863.46112 190.010988 867.348069 188.735629 867.558099 188.68666 868.239892 183.665554 867.052868 181.134382 866.454744 181.036228 856.999319 178.238945 857.046517 174.806131 856.836487 174.806131 856.101489 173.089831 856.101489 173.139016 856.67816 171.521085 856.573252 171.4719 857.046517 168.922472 856.783282 168.775134 854.788105 167.058834 855.049838 166.960465 855.889958 159.65411 853.947985 157.887552 853.572119 157.102534 853.256967 152.051789 852.310438 150.776431 851.680348 147.736877 850.262055 146.559887 849.421935 146.902675 849.05508 147.245462 846.901576 147.687692 843.172954 148.717343 843.488106 148.717343 843.068046 147.001044 842.069599 148.570005 840.599604 145.186375 839.494747 146.019503 832.510768 141.311545 826.523734 142.096563 824.580259 140.673866 824.580259 139.64443 823.425202 140.085371 821.903289 130.326883 818.753054 129.493755 822.008196 128.862949 821.840859 129.861672 818.61146 129.566995 818.453133 131.381448 817.246373 132.314019 816.091101 132.607622 814.672808 132.21565 813.885893 132.264835 810.577331 132.705776 808.057186 133.637273 808.215513 133.833796 805.275093 135.010786 805.537041 136.530563 809.422274 137.266396 806.955333 138.100598 804.381769 138.951767 804.686194 139.866082 805.011859 140.804237 801.327431 140.540274 800.936333 140.166558 800.382403 138.597597 799.489079 138.009102 799.647191 137.518976 798.912193 134.674656 798.282103 135.214181 793.451629 135.229001 793.325482 136.687137 781.11993 138.746224 781.224838 138.647855 780.804992 137.96228 780.648167 138.011464 779.703139 135.754566 779.493109 132.469305 779.126254 133.54814 772.617256 131.488838 772.145493 132.326477 766.68643 131.051333 766.581307 131.199745 764.848077 131.29704 763.589399 132.278581 763.956254 132.916045 764.061162 134.142219 765.741402 135.221054 765.94993 135.563842 763.274462 138.60447 763.851132 138.898073 762.119189 140.369954 762.171107 143.017536 762.276015 144.391048 762.486045 143.851738 765.793105 144.440232 765.94993 145.174992 762.696075 148.804114 763.904337 148.97336 763.96977 149.88295 764.322895 150.557141 761.618464 152.776239 752.724692 152.335083 752.619785 152.77495 749.916855 152.923577 748.999074 156.936725 749.784487 157.025858 749.801221 158.561743 750.100927 158.85642 747.372253 164.642999 748.212373 165.231494 746.638757 166.702301 747.057316 166.996978 744.85361 178.765584 742.019814 179.452447 741.601256 179.848929 739.968214 181.246497 734.215667 181.313938 733.940203 182.68745 728.902702 184.060962 731.631375 184.322563 730.56771 188.120932 731.686296 187.463922 736.303523 187.434068 736.513553 188.414535 738.402321 197.045433 744.909818 196.555092 747.952142 204.499127 749.1072 207.246151 750.472287 207.539969 749.632167 214.798214 751.625843 215.092032 749.31723 216.170652 749.527259 216.465544 749.212107 217.642533 749.422137 217.201377 751.415813 219.456987 751.835873 220.143851 749.632167 220.633977 749.788992 219.016046 754.774576 220.927795 755.404666 220.683161 756.139878 229.412213 758.76343 229.787003 757.243233 229.983526 757.243233 229.861316 757.925026 230.670389 758.1608 230.743414 757.845862 231.160515 757.925026 231.08749 758.212503 231.528432 758.317625 231.503303 758.632563 231.871434 758.737685 231.798194 759.21095 233.024368 758.265922 233.563679 759.341817 232.925999 759.866784 232.996876 759.964183 233.612863 760.810525 236.162076 758.97346 238.148138 757.084906 245.033956 758.367827 251.299492 761.528788 250.610481 762.374915 246.389212 767.555512 243.593218 770.226261 239.285179 774.341475 238.890844 774.718843 238.630317 777.338103 239.503394 779.194691 240.916856 780.874931 256.594656 789.289431 260.252559 791.751866 260.450156 791.885736 261.926547 796.008459 261.945877 801.418823 260.39195 805.848975 257.169405 809.556144 255.392537 810.10707 254.815426 810.28685 253.04672 810.836061 249.642471 810.32182 246.328645 809.821095 245.404235 809.8256 239.781104 809.85306 237.351737 810.689962 231.730754 812.624426 230.338985 814.053445 228.652325 815.78689 224.621995 819.927849 222.572143 824.63046 221.675011 826.688068 221.688757 830.237124 222.08975 832.02077 222.238377 832.678105 224.410652 835.171005 229.120758 836.953149 240.438113 840.625348 242.609315 842.533853 244.244428 845.754241 244.171403 846.417584 243.276634 854.602317 242.097282 859.947248 242.004712 860.365806 241.948869 861.298605 241.975072 862.271093 242.043587 864.847661 242.404631 867.55059 244.588504 872.960739 243.167955 873.237704 231.104673 872.082647 230.614332 870.927589 232.967237 871.137619 232.378742 870.085967 232.575265 863.152189 233.065391 863.152189 233.555732 861.157012 226.886841 860.632044 227.278813 863.783781 219.531301 862.837251 218.942806 865.884081 218.903931 865.876357 215.80381 865.253991"></polygon>
                    <polygon id="路径" points="478.145095 85.8203076 471.696997 84.5601278 469.539541 79.7601169 470.628471 74.5477693 470.716531 74.1247058 471.89352 65.5686124 463.850043 63.4822574 464.443048 61.4109199 467.368339 61.3514936 478.132638 60.8127957 479.26839 59.8388058 479.300392 59.8113453 483.727204 56.0142866 488.960726 47.5191211 491.716986 43.0462764 491.727296 43.0280409 491.739753 43.0083037 492.026698 42.5440495 498.284072 37.4031421 505.829262 32.2866918 510.729232 31.2410471 514.989161 30.3324905 526.744021 29.4726333 533.313469 30.4848105 534.223059 30.6246874 539.990307 33.9349658 542.971441 35.6454551 547.550317 36.7198474 561.587205 40.0116758 562.60762 40.250668 561.350518 41.1866852 560.8329 41.5715613 557.352405 44.152849 557.213013 46.9544644 558.359075 54.7388747 560.205745 67.2838214 560.760949 70.1800468 564.065755 73.8415193 567.236754 77.3571079 571.218973 78.6172878 569.675141 84.9239795 569.420413 87.3284902 569.539186 94.0582454 568.402145 95.4203294 568.0091 98.5508273 565.75349 98.2373914 566.440138 102.830376 546.137929 99.8032839 545.451066 101.055955 545.451066 102.621848 542.018466 101.682827 540.252982 101.264269 539.86101 103.769396 536.918536 103.247432 536.134807 105.752345 530.445309 105.335289 530.348229 104.082832 527.156612 103.536626 521.814411 102.621848 521.520808 105.597236 521.079652 106.275811 520.589526 106.58796 505.190509 105.388708 504.700383 108.415586 504.013519 108.310678 501.708725 109.563134 500.433581 109.458227 499.547832 115.770925 499.44839 118.7461 500.086069 118.954628 499.792466 121.826396 500.527225 121.878314 500.528299 122.763915 499.84165 126.54896 499.670256 126.965802 499.32618 126.940058 499.228026 128.035689 498.78687 129.262402 498.517107 129.524134 498.296744 130.51636 498.149191 131.038324 498.12535 131.376217 497.609881 131.402176 497.314989 134.168822 495.844396 134.037955 495.771371 134.482472 494.545198 144.112958 498.762815 144.843451 498.468138 149.124501 499.351309 149.124501 498.762815 152.15288 500.430145 152.361408 499.939804 156.120494 500.920271 156.2239 500.626668 158.627124 502.050438 159.255497 502.393226 159.98599 501.918994 161.777359 501.853916 162.022358 495.921073 160.821604 494.008035 168.184453 493.567094 171.107924 493.076753 173.09259 492.488258 172.884061 491.458822 172.622328 490.771958 179.828352 486.064001 178.887829 484.396885 179.514916 484.268877 180.160023 482.220099 190.455568 481.944752 191.840608 482.72977 191.944013 482.82685 192.989658 484.101994 193.303094 483.415345 195.91313 483.219896 198.316138 480.669394 197.794174 479.296956 202.076726 478.412495 206.047344 476.352334 205.210228 475.56839 208.240323 474.881742 207.926887 473.802906 211.478947 472.210104 211.083129 472.479652 210.666287 473.018962 209.021017 468.72832 207.296797 468.458558 207.035064 467.968432 206.85228 467.820879 207.217634 463.210216 205.208726 464.190682 202.910625 461.836703 201.918399 462.376014 200.821052 462.376014 200.299087 456.000941 200.455913 456.736774 196.276767 455.46163 196.120156 452.225339 196.590417 449.381234 196.381889 452.127185 186.250678 448.402056 184.929785 446.095973 184.110904 446.733652 178.052215 436.534007 175.494097 435.74899 180.403521 436.189931 180.455438 435.896328 182.543295 432.609993 182.753325 432.021499 188.497076 428.232151 188.009867 427.559248 187.923194 427.559248 187.296108 426.088441 187.558056 426.039471 188.028317 423.29352 187.558056 424.02828 181.499367 422.998629 181.290838 423.195152 180.193491 420.546496 179.462998 419.075903 178.731004 420.203708 175.599005 420.841173 173.457729 418.192517 172.256975 414.661548 170.951314 410.689639 170.063996 410.297667 171.631605 404.902845 170.377432 404.511088 172.778939 400.293256 171.735011 399.704762 174.13802 394.808442 172.617609 396.378478 166.455514 395.59346 165.620114 397.555467 162.904956 400.497941 162.80155 403.93054 161.861027 406.18615 160.29492 407.558589 158.415592 410.697585 155.386998 412.071098 153.402333 412.295112 152.875864 412.393266 152.51051 412.491635 152.041965 412.883607 151.153146 413.178284 150.005597 413.472102 149.2219 413.914332 148.856546 414.158751 148.54311 414.599907 148.072849 415.188402 147.760915 415.384924 147.498967 416.071573 147.082126 418.03358 145.984778 420.730347 145.881372 422.005705 145.827953 424.016896 145.933075 425.634827 145.671342 427.743099 144.315265 428.003626 142.985147 429.115537 137.319272 429.480017 133.09443 429.773835 131.109979 430.362115 130.536097 431.048979 130.379486 433.648665 130.953154 435.95346 131.163184 438.797564 130.692922 442.425613 129.021908 444.877961 128.970205 445.564609 129.543872 447.133571 132.310732 449.782441 133.616394 452.087236 133.930044 454.146323 134.03345 455.029495 133.668311 456.059146 134.295183 458.118233 133.668311 459.193632 132.779492 459.732942 132.20561 460.567144 131.735349 460.713409 129.073611 461.547611 129.177231 461.595507 126.93684 464.144934 127.041962 464.636349 124.536834 465.910419 124.640455 466.695436 118.272835 466.989039 114.618871 465.027032 113.784758 468.166029 105.642718 468.536308 98.9296965 468.558001 98.5448203 479.739186 101.258262 480.524203 96.2497226 482.878182 96.8753073 484.055172 89.7786969 481.308147 86.438169"></polygon>
                    <polygon id="路径" points="547.591339 303.794522 545.630621 303.16765 544.943757 305.206808 541.90313 303.794522 541.707681 304.369906 541.119186 304.056255 540.922663 304.683342 538.960656 303.742819 538.372161 305.310428 538.078558 305.310428 538.078558 304.996778 537.637402 304.840167 537.881821 303.742819 537.686586 303.689615 538.322977 301.860273 538.029374 301.390012 537.832851 301.755151 537.022704 301.548339 532.952426 299.508967 533.001395 299.222777 535.870844 300.738683 536.140392 300.137555 535.25722 299.693038 535.92325 298.003788 536.949465 295.405981 536.752942 295.328319 534.963402 299.744956 534.792009 299.667294 535.526768 297.889655 530.942308 295.79858 529.446586 300.163299 528.956246 300.842089 529.495771 299.300439 528.808907 298.620148 528.318781 299.613875 528.02389 299.508967 528.808907 297.73283 526.454928 297.889655 526.651451 297.104456 526.062956 296.6874 526.504113 295.902201 525.670985 295.380022 525.964802 294.491417 525.228754 294.124562 525.03352 294.386295 524.64026 294.4395 523.022329 297.366189 522.041862 296.739103 523.708978 293.39407 516.986607 290.723106 516.790084 291.558721 515.907986 291.141664 516.691715 288.632032 516.398112 287.481479 514.044133 286.854607 514.926231 284.241568 516.398112 284.763533 519.144063 276.819293 520.517575 272.847174 512.965512 269.085084 514.82915 262.291398 514.927519 261.980965 517.084761 255.182773 519.634188 246.9266 521.399673 247.553472 521.988167 245.463899 523.655283 245.986078 525.225318 241.596902 527.089171 242.432302 527.971269 237.834812 529.148258 238.356776 530.618851 234.699809 542.242481 239.298801 545.03869 232.089774 544.498091 231.879744 544.645644 231.044129 545.186028 231.305862 545.676154 230.260432 549.697463 232.141477 551.021791 227.907624 553.473924 229.213286 554.798467 225.034354 555.220078 225.259402 556.389121 225.881983 556.563951 225.974877 557.593387 221.272265 559.162349 222.055962 560.145178 218.453701 559.556683 218.19347 559.556683 217.252947 559.900544 216.103897 560.831826 216.103897 560.831826 216.469036 562.008816 216.417333 564.460949 216.887594 565.000474 214.11773 565.588969 214.274555 565.980726 211.76814 565.588969 211.245961 566.177463 208.529516 567.305268 208.634424 568.090286 203.880109 567.64913 203.776703 567.893763 200.067818 567.795394 198.605332 566.913297 198.605332 567.501791 195.576738 566.226433 195.263302 566.520251 193.488667 574.169394 195.57824 574.365917 196.832413 576.327924 194.115753 578.093408 192.02618 588.783393 186.6997 588.685024 185.55065 585.547316 184.923563 585.64547 177.090453 589.470042 177.926068 589.76837 175.109006 590.156905 171.451824 587.214432 169.467374 594.079631 159.541687 600.748522 163.302275 602.489951 159.384862 604.84393 158.811195 605.419753 157.858444 609.445572 152.849905 611.247569 154.079621 610.968785 156.42492 611.518405 157.05501 616.665157 159.288965 621.497472 161.069607 627.022449 163.924642 630.082622 165.277715 630.487265 165.779942 631.451624 166.979194 637.812951 171.471776 638.531817 174.386022 638.56253 174.510882 640.53141 182.499315 641.222784 185.302647 641.395252 186.442472 643.092221 197.649578 644.336651 205.86928 644.340088 209.406107 644.340088 209.853413 644.348035 217.557158 644.352545 223.101392 644.350397 223.130354 644.352545 223.16232 644.354908 226.031085 644.293266 226.833017 644.125309 229.012481 643.802925 233.209862 642.820311 245.990583 643.177918 249.427008 643.579125 253.214842 645.067974 267.281701 644.782318 274.652059 644.679439 277.310794 640.527974 286.015989 639.06318 286.285445 636.94331 286.675041 633.25362 287.352114 631.785176 287.621571 631.749737 286.790676 628.481658 286.894082 628.046301 286.860614 626.347184 286.732751 626.08773 284.772543 625.414827 284.110487 623.163728 283.378493 622.488247 281.84757 622.649332 280.42606 619.861284 279.965023 619.029445 279.826434 614.43575 279.547967 611.825754 280.094388 611.087558 281.41378 610.394036 282.654222 610.508299 285.885123 612.465796 287.537902 612.38912 295.223411 613.274654 296.810758 613.499742 299.752464 613.400514 301.246917 613.248451 303.51155 610.806412 303.561752 610.401983 308.830522 610.106018 312.687007 605.400422 313.995672 600.08464 315.475107 595.906971 316.637673 595.627973 317.456554 594.016915 317.053228 594.344883 314.087064 586.988055 312.099395 585.330175 311.652089 583.689262 311.936563 582.556732 312.132863 583.0402 309.819744 578.635081 308.882225 578.03284 308.754362 578.28542 308.058839 563.617726 303.05502 558.776176 298.685581 557.480413 297.883648 555.366343 301.688216 555.026992 304.468807 553.748197 306.372592 547.760585 303.866177"></polygon>
                    <polygon id="路径" points="521.988167 245.463899 521.399673 247.553472 519.634188 246.9266 517.084761 255.182773 514.159469 254.161586 512.051198 253.169146 512.492354 251.705158 509.402542 249.980938 509.795588 248.988713 508.177442 248.256719 508.323706 247.73454 507.784396 245.801792 506.313804 245.018095 505.381447 247.369401 505.03866 246.950843 505.725309 244.912973 505.08763 244.494629 506.117281 242.091406 504.302612 241.569441 502.782835 244.86127 499.693023 241.726267 501.017351 238.904699 500.134179 238.224408 501.311169 236.031429 499.693023 234.829174 498.12535 237.650741 494.594382 235.769696 493.22087 232.948129 491.55354 228.820686 491.259937 229.500977 491.651908 229.918034 491.406201 230.388295 490.866891 230.126562 490.425735 230.858556 489.150591 230.022942 489.689901 228.090194 485.86533 226.157446 487.335922 222.343653 484.589972 220.984573 481.501233 218.843297 479.293519 218.267913 478.460606 217.589124 478.264083 216.283463 479.147254 213.932157 476.498599 212.574578 476.84246 212.104317 476.253965 211.790881 476.744306 210.590127 476.106627 210.485005 475.567316 212.052614 473.802906 211.478947 474.881742 207.926887 475.56839 208.240323 476.352334 205.210228 478.412495 206.047344 479.296956 202.076726 480.669394 197.794174 483.219896 198.316138 483.415345 195.91313 484.101994 193.303094 482.82685 192.989658 482.72977 191.944013 481.944752 191.840608 482.220099 190.455568 484.268877 180.160023 484.396885 179.514916 486.064001 178.887829 490.771958 179.828352 491.458822 172.622328 492.488258 172.884061 493.076753 173.09259 493.567094 171.107924 494.008035 168.184453 495.921073 160.821604 501.853916 162.022358 501.918994 161.777359 502.393226 159.98599 502.050438 159.255497 500.626668 158.627124 500.920271 156.2239 499.939804 156.120494 500.430145 152.361408 498.762815 152.15288 499.351309 149.124501 498.468138 149.124501 498.762815 144.843451 494.545198 144.112958 495.771371 134.482472 495.844396 134.037955 497.314989 134.168822 497.609881 131.402176 498.12535 131.376217 498.149191 131.038324 498.296744 130.51636 498.517107 129.524134 498.78687 129.262402 499.228026 128.035689 499.32618 126.940058 499.670256 126.965802 499.84165 126.54896 500.528299 122.763915 500.527225 121.878314 499.792466 121.826396 500.086069 118.954628 499.44839 118.7461 499.547832 115.770925 500.433581 109.458227 501.708725 109.563134 504.013519 108.310678 504.700383 108.415586 505.190509 105.388708 520.589526 106.58796 521.079652 106.275811 521.520808 105.597236 521.814411 102.621848 527.156612 103.536626 530.348229 104.082832 530.445309 105.335289 536.134807 105.752345 536.918536 103.247432 539.86101 103.769396 540.252982 101.264269 542.018466 101.682827 545.451066 102.621848 545.451066 101.055955 546.137929 99.8032839 566.440138 102.830376 565.75349 98.2373914 568.0091 98.5508273 568.402145 95.4203294 569.539186 94.0582454 569.630682 99.2753127 569.663758 101.154856 579.37435 100.258313 581.036955 100.267538 581.164964 103.320374 583.293854 104.260897 590.781913 104.149767 593.319742 102.933782 595.158466 102.805919 598.441365 103.153037 602.459023 104.620029 606.477969 104.492166 608.328076 104.432954 609.878567 104.839284 610.304903 105.896942 608.566911 126.287013 608.054877 126.930833 605.306779 126.687335 603.439489 133.118887 601.807812 133.561687 598.160219 143.552807 598.02319 143.927171 597.931694 144.178391 599.323463 145.120416 604.525198 146.369869 604.502216 146.651339 604.495343 146.70154 604.496632 146.722994 604.288511 149.333029 609.445572 152.849905 605.419753 157.858444 604.84393 158.811195 602.489951 159.384862 600.748522 163.302275 594.079631 159.541687 587.214432 169.467374 590.156905 171.451824 589.76837 175.109006 589.470042 177.926068 585.64547 177.090453 585.547316 184.923563 588.685024 185.55065 588.783393 186.6997 578.093408 192.02618 576.327924 194.115753 574.365917 196.832413 574.169394 195.57824 566.520251 193.488667 566.226433 195.263302 567.501791 195.576738 566.913297 198.605332 567.795394 198.605332 567.893763 200.067818 567.64913 203.776703 568.090286 203.880109 567.305268 208.634424 566.177463 208.529516 565.588969 211.245961 565.980726 211.76814 565.588969 214.274555 565.000474 214.11773 564.460949 216.887594 562.008816 216.417333 560.831826 216.469036 560.831826 216.103897 559.900544 216.103897 559.556683 217.252947 559.556683 218.19347 560.145178 218.453701 559.162349 222.055962 557.593387 221.272265 556.563951 225.974877 556.389121 225.881983 555.220078 225.259402 554.798467 225.034354 553.473924 229.213286 551.021791 227.907624 549.697463 232.141477 545.676154 230.260432 545.186028 231.305862 544.645644 231.044129 544.498091 231.879744 545.03869 232.089774 542.242481 239.298801 530.618851 234.699809 529.148258 238.356776 527.971269 237.834812 527.089171 242.432302 525.225318 241.596902 523.655283 245.986078"></polygon>
                    <polygon id="路径" points="275.022917 328.016835 270.998387 323.635383 262.92076 315.54955 259.980434 305.786696 259.44456 304.007556 262.620069 293.007477 264.163901 287.661045 273.407134 276.930423 273.80018 276.44021 279.490967 269.360548 283.983931 263.769116 284.460526 263.244149 288.86092 258.401445 288.888412 258.372483 290.586455 256.503667 299.888108 252.186146 299.910875 252.175419 305.354666 249.64755 312.136531 258.421183 314.996744 263.899983 315.362513 264.600011 315.976137 265.775021 318.132304 269.132282 321.048575 273.672062 324.98612 279.805195 330.824245 284.73457 333.859289 287.81787 333.899238 287.859061 340.520018 294.5871 346.610509 298.461821 347.97049 299.685529 346.744317 304.33794 346.990024 304.33794 347.872122 300.939488 348.412721 301.25464 348.509801 300.522431 349.981467 301.619779 349.58971 303.397418 351.550428 304.286237 351.9424 303.135685 353.757069 304.494551 353.610804 305.907051 354.247195 306.167282 353.806253 308.154736 354.720353 307.991904 354.983028 307.944706 357.530093 308.623496 357.138336 309.982576 359.4921 311.133128 358.51056 314.061105 357.431939 313.851075 357.138336 315.001627 353.312476 314.164726 351.645361 320.857795 352.920504 321.590004 352.135487 325.771939 352.920504 325.981969 346.741954 332.046665 348.801041 332.883781 348.409284 343.969245 349.193013 345.224705 346.055305 352.441455 345.368442 352.336547 344.486344 355.371148 343.406435 355.579676 338.699765 346.061821 334.383779 346.480165 334.090176 352.754891 328.890804 352.742877 329.185696 355.043767 329.282776 358.392018 329.969425 358.392018 329.969425 359.019105 328.156045 359.332541 328.160555 359.87274 328.20394 365.661973 329.479299 365.661973 329.38093 368.538461 330.852811 368.381636 329.33196 377.84929 332.961083 378.111023 332.813744 381.144122 334.088888 381.302449 334.138072 382.399582 334.628198 382.399582 334.677383 383.133292 335.265877 383.184995 335.413216 383.865286 329.577668 383.02817 329.528483 383.446728 330.656288 383.760164 330.803627 390.091313 327.861153 389.567632 327.66463 393.544472 319.818964 389.98619 315.993104 394.589902 315.896024 394.854638 315.111007 396.995914 313.63934 397.311066 312.070379 400.030729 310.108372 400.345667 308.735933 403.588796 305.303334 407.041955 304.126344 408.507445 310.108372 409.239439 309.814554 414.786676 308.637565 414.47324 308.245808 421.381059 305.596937 421.694495 305.008442 424.834218 301.282025 424.102224 300.10525 425.149156 299.320018 428.602315 298.928261 431.220073 295.887418 430.381455 295.789264 432.370626 296.769516 432.580656 296.769516 435.30182 299.025341 435.720164 298.535 438.756481 299.025341 438.964795 298.938355 439.61312 298.829892 440.430499 293.141467 439.488475 290.787703 439.174825 290.492812 439.698505 289.315822 439.488475 288.727327 439.279947 287.943384 440.325377 285.098205 440.221971 285.098205 439.174825 283.922289 439.174825 283.823921 439.801911 279.508149 439.801911 279.214332 437.917863 277.547216 437.814242 277.644296 435.511636 276.174778 435.352022 276.273147 433.677789 274.163586 433.154323 274.212771 432.787468 276.223962 433.049415 276.370227 430.903419 273.281489 430.013098 270.92751 430.275046 268.965503 429.961395 269.014687 427.448759 269.260394 426.665062 266.268736 425.827945 265.483719 428.444202 266.023029 428.54911 265.680241 429.594755 262.100303 428.234172 261.609963 430.433158 261.119837 430.32825 260.531342 432.735765 258.618519 432.212299 258.128179 434.201469 255.480597 433.416056 254.499056 436.085518 251.998813 435.038371 252.782757 432.89259 249.841357 431.845444 248.95797 434.253172 248.172953 434.043142 249.056339 431.4271 248.172953 431.111948 248.95797 428.077347 246.898883 427.763911 246.898883 427.135323 241.210674 426.193299 238.36528 424.30925 239.445189 420.540939 238.660172 419.914068 239.520577 417.00261 242.092771 408.297415 241.112305 407.563919 242.714342 403.427465 243.845584 402.549373 247.09197 398.501093 249.117981 395.974726 255.068006 386.966822 257.416401 383.496929 259.559896 380.32996 262.339138 376.223971 264.159391 373.648905 264.202776 373.587977 268.957556 366.861225 271.401742 362.890607 274.770337 357.421032 278.569994 351.251428 279.703384 347.874215 281.254089 343.25377 278.749335 332.074125 275.217293 328.228367"></polygon>
                    <polygon id="路径" points="536.869567 342.387906 535.875354 345.904996 535.673032 348.21361 537.026141 348.796502 534.841193 356.593141 533.60471 370.02991 530.393762 369.010224 517.248207 364.835584 510.479015 362.686799 509.595628 363.210265 504.920961 361.60168 503.515447 361.117688 492.579754 358.083088 487.135963 357.926262 486.989698 357.456001 485.812709 357.456001 485.761377 356.893061 485.716703 356.410571 482.872598 356.410571 477.281254 356.410571 475.495365 356.410571 467.278132 356.410571 463.763272 356.647847 461.098508 356.829129 451.438173 356.148838 450.887265 359.496875 450.347955 362.803935 449.196094 362.595407 448.374564 367.576485 447.074077 367.27678 447.884224 362.399107 446.915355 362.25451 446.547439 362.059712 446.290348 361.863413 446.142795 361.561991 445.971401 361.157163 443.898568 357.509421 443.862055 354.541755 442.819947 354.1749 442.907792 353.389486 442.691939 353.336282 442.267965 353.229872 439.255903 352.216193 434.814271 350.720239 431.905947 349.834423 428.635506 348.837693 426.081783 347.895668 421.218325 346.099794 418.434788 345.0726 411.248279 342.839932 410.687276 342.666373 408.594898 341.975569 405.438934 340.932928 403.723708 340.36677 400.948118 339.045876 397.348635 337.333671 395.361499 335.588212 394.014189 334.405694 391.855659 332.731676 391.365533 333.255142 383.814545 327.449175 382.539186 332.626554 382.294768 332.626554 381.950692 334.874454 380.627438 334.352489 380.234392 333.672198 380.185207 332.730174 379.548817 331.265971 377.291918 330.377152 376.017849 329.174896 374.496998 327.815816 375.380169 326.560356 373.810134 325.149572 376.164113 322.535032 375.3312 322.011566 372.633145 324.574403 371.996754 323.894112 374.546182 321.174449 374.15421 320.809096 373.467347 321.593007 372.928037 321.332776 372.388726 322.378206 371.015214 321.279357 372.388726 319.083375 364.836664 313.437237 363.120364 315.162958 363.856197 312.756946 363.249446 312.265445 361.600587 310.927604 361.453034 311.502987 360.030337 310.40564 359.4921 311.133128 357.138336 309.982576 357.530093 308.623496 354.983028 307.944706 354.720353 307.991904 353.806253 308.154736 354.247195 306.167282 353.610804 305.907051 353.757069 304.494551 351.9424 303.135685 351.550428 304.286237 349.58971 303.397418 349.981467 301.619779 348.509801 300.522431 348.412721 301.25464 347.872122 300.939488 346.990024 304.33794 346.744317 304.33794 347.97049 299.685529 346.610509 298.461821 348.305116 299.539431 359.341326 305.916061 365.667429 298.722052 366.944935 297.26879 367.664875 290.163169 368.021193 289.644209 368.676055 285.311241 369.061154 283.576509 371.148806 280.088167 374.222725 274.454257 374.843222 270.728639 374.835275 268.986184 375.106111 268.301387 374.468432 265.659386 373.829679 263.790355 373.437707 262.646024 371.813977 260.22006 372.264154 254.170596 375.686444 254.657591 376.785684 250.104081 380.19208 250.782871 380.874434 247.48053 380.259521 247.227808 380.508665 244.748639 380.526921 244.569073 377.510134 244.02115 372.129273 243.044156 371.747611 242.710983 368.234898 231.963413 367.920677 231.001651 367.134585 228.178368 366.496906 223.185275 367.376856 220.041047 367.536866 219.468667 370.446049 214.23508 372.194351 209.133648 374.011382 203.83141 374.460485 201.761574 375.63726 196.333189 375.728756 195.910126 376.297921 193.289364 377.014209 189.489302 377.486293 186.984174 380.360038 182.216129 380.915456 181.619506 381.215932 181.29706 382.17578 179.587858 391.185978 171.84142 392.847509 172.722731 393.239481 171.782208 394.808442 172.617609 399.704762 174.13802 400.293256 171.735011 404.511088 172.778939 404.902845 170.377432 410.297667 171.631605 410.689639 170.063996 414.661548 170.951314 418.192517 172.256975 420.841173 173.457729 420.203708 175.599005 419.075903 178.731004 420.546496 179.462998 423.195152 180.193491 422.998629 181.290838 424.02828 181.499367 423.29352 187.558056 426.039471 188.028317 426.088441 187.558056 427.559248 187.296108 427.559248 187.923194 428.232151 188.009867 432.021499 188.497076 432.609993 182.753325 435.896328 182.543295 436.189931 180.455438 435.74899 180.403521 436.534007 175.494097 446.733652 178.052215 446.095973 184.110904 448.402056 184.929785 452.127185 186.250678 449.381234 196.381889 452.225339 196.590417 455.46163 196.120156 456.736774 196.276767 456.000941 200.455913 462.376014 200.299087 462.376014 200.821052 461.836703 201.918399 464.190682 202.910625 463.210216 205.208726 467.820879 207.217634 467.968432 206.85228 468.458558 207.035064 468.72832 207.296797 473.018962 209.021017 472.479652 210.666287 472.210104 211.083129 473.802906 211.478947 475.567316 212.052614 476.106627 210.485005 476.744306 210.590127 476.253965 211.790881 476.84246 212.104317 476.498599 212.574578 479.147254 213.932157 478.264083 216.283463 478.460606 217.589124 479.293519 218.267913 481.501233 218.843297 484.589972 220.984573 487.335922 222.343653 485.86533 226.157446 489.689901 228.090194 489.150591 230.022942 490.425735 230.858556 490.866891 230.126562 491.406201 230.388295 491.651908 229.918034 491.259937 229.500977 491.55354 228.820686 493.22087 232.948129 494.594382 235.769696 498.12535 237.650741 499.693023 234.829174 501.311169 236.031429 500.134179 238.224408 501.017351 238.904699 499.693023 241.726267 502.782835 244.86127 504.302612 241.569441 506.117281 242.091406 505.08763 244.494629 505.725309 244.912973 505.03866 246.950843 505.381447 247.369401 506.313804 245.018095 507.784396 245.801792 508.323706 247.73454 508.177442 248.256719 509.795588 248.988713 509.402542 249.980938 512.492354 251.705158 512.051198 253.169146 514.159469 254.161586 517.084761 255.182773 514.927519 261.980965 514.82915 262.291398 512.965512 269.085084 520.517575 272.847174 519.144063 276.819293 516.398112 284.763533 514.926231 284.241568 514.044133 286.854607 516.398112 287.481479 516.691715 288.632032 515.907986 291.141664 516.790084 291.558721 516.986607 290.723106 523.708978 293.39407 522.041862 296.739103 523.022329 297.366189 524.64026 294.4395 525.03352 294.386295 525.228754 294.124562 525.964802 294.491417 525.670985 295.380022 526.504113 295.902201 526.062956 296.6874 526.651451 297.104456 526.454928 297.889655 528.808907 297.73283 528.02389 299.508967 528.318781 299.613875 528.808907 298.620148 529.495771 299.300439 528.956246 300.842089 529.446586 300.163299 530.942308 295.79858 535.526768 297.889655 534.792009 299.667294 534.963402 299.744956 536.752942 295.328319 536.949465 295.405981 535.92325 298.003788 535.25722 299.693038 536.140392 300.137555 535.870844 300.738683 533.001395 299.222777 532.952426 299.508967 537.022704 301.548339 537.832851 301.755151 538.029374 301.390012 538.322977 301.860273 537.686586 303.689615 537.881821 303.742819 537.637402 304.840167 538.078558 304.996778 538.078558 305.310428 538.372161 305.310428 538.960656 303.742819 540.922663 304.683342 541.119186 304.056255 541.707681 304.369906 541.90313 303.794522 544.943757 305.206808 545.630621 303.16765 547.591339 303.794522 547.760585 303.866177 553.748197 306.372592 553.998415 307.675464 552.133703 312.148095 552.930103 312.260726 552.267295 315.66068 553.330022 319.005713 554.709333 320.154763 558.87433 320.748382 559.193277 322.09974 559.660636 324.08419 558.989881 328.299807 559.838903 328.474868 558.411696 331.384824 555.782155 330.009009 554.439571 331.919016 552.186109 333.104538 550.323544 333.47268 545.339166 332.017917 544.590661 331.800164 541.143241 330.497506 539.529606 333.008641 539.517149 333.034385 539.494167 333.103036"></polygon>
                </g>
                <g id="编组" transform="translate(28.933805, 65.383345)" fill="#FFFFFF" fill-opacity="0.8" font-family="PingFangSC-Regular, PingFang SC" font-size="20.8" font-weight="normal">
                    <text id="刘桥乡">
                        <tspan x="167.828284" y="417.476528">刘桥乡</tspan>
                    </text>
                    <text id="焦庙镇">
                        <tspan x="254.957599" y="525.096255">焦庙镇</tspan>
                    </text>
                    <text id="晏城街道">
                        <tspan x="318.140657" y="299.251142">晏城街道</tspan>
                    </text>
                    <text id="潘店镇">
                        <tspan x="20.8846218" y="525.286613">潘店镇</tspan>
                    </text>
                    <text id="马集镇">
                        <tspan x="104.69678" y="834.675347">马集镇</tspan>
                    </text>
                    <text id="胡官屯镇">
                        <tspan x="157.473617" y="625.858549">胡官屯镇</tspan>
                    </text>
                    <text id="祝阿镇">
                        <tspan x="339.13431" y="388.636988">祝阿镇</tspan>
                    </text>
                    <text id="仁里集镇">
                        <tspan x="0" y="688.293751">仁里集镇</tspan>
                    </text>
                    <text id="大黄乡">
                        <tspan x="358.070087" y="22">大黄乡</tspan>
                    </text>
                    <text id="赵官镇">
                        <tspan x="125.54557" y="738.929997">赵官镇</tspan>
                    </text>
                    <text id="宣章屯镇">
                        <tspan x="392.105411" y="79.7149586">宣章屯镇</tspan>
                    </text>
                    <text id="表白寺镇">
                        <tspan x="514.808708" y="195.523621">表白寺镇</tspan>
                    </text>
                    <text id="晏北街道">
                        <tspan x="378.821685" y="210.311357">晏北街道</tspan>
                    </text>
                    <text id="安头乡">
                        <tspan x="483.211933" y="108.783864">安头乡</tspan>
                    </text>
                    <text id="华店乡">
                        <tspan x="241.090889" y="277.497371">华店乡</tspan>
                    </text>
                </g>
            </g>
        </g>
    </g>
</svg>